<svg xmlns="http://www.w3.org/2000/svg" width="59.847" height="65.783" viewBox="0 0 59.847 65.783">
  <g id="Over_33_years_legacy_of_care" data-name="Over 33 years’ legacy of care" transform="translate(0.005 1.461)">
    <g id="Group_7" data-name="Group 7" transform="translate(0 22.165)">
      <path id="Path_12" data-name="Path 12" d="M77.563,140.873a6.034,6.034,0,0,0-2.451-6.785c-2.658-2.047-5.164-4.224-7.752-6.333-2.171-1.77-3.36-3.755-3.23-6.373.211-4.223.054-8.457.061-12.687,0-2.065,0-4.131.062-6.2.01-.355.229-.961.471-1a1.827,1.827,0,0,1,1.384.345c.666.923,1.554,1.915,1.62,2.913.209,3.14.029,6.293.122,9.439a5.02,5.02,0,0,0,.778,2.5c2.009,3.137,4.12,6.233,6.24,9.323.435.635,1.014,1.359,2.148.776,1-.514.808-1.143.272-1.9q-3.135-4.416-6.138-8.89c-.958-1.421-.618-2.135,1.474-3.02a22.152,22.152,0,0,1,2.125,2.423c2.3,3.535,4.6,7.041,8.515,9.667,5.116,3.431,7.425,7.836,6.864,13.2a3.252,3.252,0,0,0,.037,1.608c.192.435.8.752,1.218,1.121.411-.374,1.122-.722,1.18-1.128a21.992,21.992,0,0,0,.069-3.535c-.08-4.032,1.792-7.353,5.375-10.169,2.717-2.137,5.7-4.106,7.435-6.951a52.864,52.864,0,0,1,3.5-5.065c.358-.458,1.288-.625,1.956-.925a16.243,16.243,0,0,1,.945,1.894c.084.233-.153.572-.324.829-2,2.984-3.946,5.991-6.053,8.924-.608.847-.818,1.44.312,1.941,1.158.515,1.6-.193,2.062-.878,1.486-2.218,2.915-4.466,4.525-6.624a10.554,10.554,0,0,0,2.482-7.6,55.876,55.876,0,0,1-.031-7.225c.047-1.835,1.4-3.017,3.546-3.087.031.475.089.951.09,1.429.012,6.59-.025,13.18.051,19.77a5.445,5.445,0,0,1-2.226,4.323c-2.875,2.434-5.819,4.814-8.727,7.223-1.858,1.537-2.981,3.3-2.7,5.531.092.736.062,1.363,1.329,1.35,1.236-.011,1.643-.519,1.525-1.4a3.9,3.9,0,0,1,1.562-3.754c2.319-1.9,4.561-3.865,6.921-5.734,2.522-2,5.037-4.04,5.073-7.092.087-7.475,0-14.95,0-22.424,0-1.238-.738-1.874-2.261-1.712-3.92.414-6.713,1.832-6.856,5.784-.06,1.622-.01,3.246-.032,4.869-.014,1-.293,1.656-1.909,1.575a3.723,3.723,0,0,0-3.423,1.6c-.6.9-1.3,1.751-1.888,2.65a27.7,27.7,0,0,1-6.217,7.29,71.108,71.108,0,0,0-6.455,6.081c-.666.655-1.132.63-1.681-.035A16.711,16.711,0,0,0,88.7,126.59c-2.032-1.759-4.423-3.292-6.172-5.209A82.862,82.862,0,0,1,76.75,113.7c-1.044-1.446-2.261-2.788-4.541-2.622-1.626.118-1.764-.536-1.785-1.438-.039-1.721.011-3.444-.042-5.163-.112-3.681-2.748-5.041-6.144-5.533-2-.291-2.687.3-2.7,1.926-.045,7.229-.122,14.458-.059,21.686a6.628,6.628,0,0,0,2.5,5.344c2.8,2.3,5.527,4.656,8.3,6.972,1.5,1.248,2.865,2.481,2.8,4.419C75.018,141,75.272,141.083,77.563,140.873Z" transform="translate(-61.457 -98.871)" fill="#fff"/>
      <path id="Path_13" data-name="Path 13" d="M77.563,140.873c-2.29.209-2.545.123-2.482-1.583.07-1.938-1.3-3.171-2.8-4.419-2.778-2.317-5.5-4.677-8.305-6.972a6.628,6.628,0,0,1-2.5-5.344c-.064-7.228.014-14.457.059-21.686.01-1.631.7-2.217,2.7-1.926,3.4.492,6.032,1.853,6.144,5.533.054,1.719,0,3.443.042,5.163.021.9.16,1.556,1.785,1.438,2.28-.166,3.5,1.176,4.541,2.622a82.859,82.859,0,0,0,5.782,7.674c1.749,1.918,4.14,3.45,6.172,5.209a16.711,16.711,0,0,1,1.835,2.135c.549.665,1.015.689,1.681.035a71.11,71.11,0,0,1,6.455-6.081,27.7,27.7,0,0,0,6.217-7.29c.591-.9,1.293-1.752,1.888-2.65a3.723,3.723,0,0,1,3.423-1.6c1.616.081,1.9-.58,1.909-1.575.022-1.623-.027-3.247.032-4.869.143-3.952,2.936-5.37,6.856-5.784,1.522-.162,2.259.474,2.261,1.712,0,7.475.085,14.95,0,22.424-.036,3.052-2.551,5.093-5.073,7.092-2.36,1.869-4.6,3.833-6.921,5.734a3.9,3.9,0,0,0-1.562,3.754c.118.883-.289,1.39-1.525,1.4-1.267.012-1.237-.615-1.329-1.35-.281-2.234.843-3.994,2.7-5.531,2.908-2.409,5.851-4.789,8.727-7.223a5.445,5.445,0,0,0,2.226-4.323c-.076-6.59-.039-13.18-.051-19.77,0-.478-.059-.954-.09-1.429-2.142.07-3.5,1.252-3.546,3.087a55.877,55.877,0,0,0,.031,7.225,10.554,10.554,0,0,1-2.482,7.6c-1.61,2.158-3.039,4.406-4.525,6.624-.458.685-.9,1.393-2.062.878-1.13-.5-.92-1.1-.312-1.941,2.107-2.933,4.057-5.94,6.053-8.924.171-.257.408-.6.324-.829a16.243,16.243,0,0,0-.945-1.894c-.668.3-1.6.468-1.956.925a52.863,52.863,0,0,0-3.5,5.065c-1.734,2.845-4.718,4.814-7.435,6.951-3.583,2.817-5.455,6.137-5.375,10.169a21.991,21.991,0,0,1-.069,3.535c-.057.406-.768.754-1.18,1.128-.423-.369-1.026-.686-1.218-1.121a3.252,3.252,0,0,1-.037-1.608c.561-5.36-1.748-9.765-6.864-13.2-3.914-2.626-6.217-6.132-8.515-9.667a22.152,22.152,0,0,0-2.125-2.423c-2.092.885-2.431,1.6-1.474,3.02q3.015,4.47,6.138,8.89c.536.753.727,1.383-.272,1.9-1.135.584-1.713-.141-2.148-.776-2.121-3.09-4.232-6.186-6.24-9.323a5.02,5.02,0,0,1-.778-2.5c-.093-3.146.087-6.3-.122-9.439-.066-1-.954-1.99-1.62-2.913a1.827,1.827,0,0,0-1.384-.345c-.242.041-.461.647-.471,1-.057,2.065-.059,4.131-.062,6.2-.007,4.229.15,8.464-.061,12.687-.13,2.615,1.059,4.6,3.229,6.374,2.587,2.108,5.093,4.285,7.752,6.333A6.034,6.034,0,0,1,77.563,140.873Z" transform="translate(-61.457 -98.871)" fill="#fff"/>
    </g>
    <path id="Path_12501" data-name="Path 12501" d="M4.063-3.8a14.235,14.235,0,0,0,7.39,2.222,11.131,11.131,0,0,0,3.824-.62,8.29,8.29,0,0,0,2.907-1.757,7.662,7.662,0,0,0,1.848-2.739,9.384,9.384,0,0,0,.646-3.54,7.744,7.744,0,0,0-2.506-6.227q-2.506-2.145-7.39-2.145-1.964,0-5.633.31L6.285-36.41h16.15v3H9.1L8.326-21.4q2.248-.155,3.566-.155a16.284,16.284,0,0,1,5.207.762,10.534,10.534,0,0,1,3.811,2.183,9.166,9.166,0,0,1,2.351,3.463,12.582,12.582,0,0,1,.8,4.625,13.04,13.04,0,0,1-.853,4.806,10.233,10.233,0,0,1-2.481,3.721,11.2,11.2,0,0,1-4.005,2.4,15.934,15.934,0,0,1-5.4.853A15.387,15.387,0,0,1,4.063-.183Z" transform="translate(26.995 34.949)" fill="#fff"/>
    <path id="Path_12500" data-name="Path 12500" d="M3.123-5.434a13.892,13.892,0,0,0,7.99,2.672,12.5,12.5,0,0,0,3.271-.424,8.076,8.076,0,0,0,2.784-1.336A6.671,6.671,0,0,0,19.1-6.845a7.329,7.329,0,0,0,.724-3.383,6.505,6.505,0,0,0-2.634-5.643q-2.634-1.9-7.753-1.9H6.594V-20.54H9.215q4.644,0,6.991-1.835a6.388,6.388,0,0,0,2.347-5.356,6.377,6.377,0,0,0-1.735-4.831,7.269,7.269,0,0,0-5.206-1.66,12.263,12.263,0,0,0-7.091,2.447V-35a16.138,16.138,0,0,1,7.765-2.022,12.618,12.618,0,0,1,3.645.524,8.838,8.838,0,0,1,3.059,1.586,7.832,7.832,0,0,1,2.1,2.647,8.248,8.248,0,0,1,.787,3.708q0,7.166-7.091,9.164v.1a11.413,11.413,0,0,1,3.271.861A8.59,8.59,0,0,1,20.7-16.657a8.126,8.126,0,0,1,1.773,2.647,8.735,8.735,0,0,1,.649,3.433,10.3,10.3,0,0,1-.949,4.519,9.617,9.617,0,0,1-2.6,3.321A11.5,11.5,0,0,1,15.72-.69a15.515,15.515,0,0,1-4.707.7,15.566,15.566,0,0,1-7.89-1.923Z" transform="translate(6.795 35.558)" fill="#fff"/>
  </g>
</svg>
