<svg xmlns="http://www.w3.org/2000/svg" width="25.17" height="25" viewBox="0 0 38.17 38">
  <g id="Group_1325" data-name="Group 1325" transform="translate(2773 307)">
    <rect id="Rectangle_57" data-name="Rectangle 57" width="38" height="38" transform="translate(-2773 -307)" fill="none"/>
    <path id="Path_7200" data-name="Path 7200" d="M7.119,1.207C6.6.059,6.06.036,5.569.016,5.167,0,4.707,0,4.249,0A2.532,2.532,0,0,0,2.412.862,7.722,7.722,0,0,0,0,6.608C0,10,2.469,13.273,2.813,13.733s4.766,7.638,11.768,10.4c5.819,2.3,7,1.839,8.267,1.724s4.076-1.667,4.65-3.275a5.753,5.753,0,0,0,.4-3.276c-.172-.287-.632-.459-1.32-.8S22.5,16.49,21.872,16.26s-1.091-.344-1.55.345-1.779,2.24-2.181,2.7-.8.518-1.493.173a18.834,18.834,0,0,1-5.54-3.419,20.758,20.758,0,0,1-3.833-4.771c-.4-.689-.007-1.029.3-1.406A20.773,20.773,0,0,0,9.3,7.527,1.27,1.27,0,0,0,9.243,6.32C9.07,5.976,7.731,2.569,7.119,1.207Zm0,0" transform="matrix(0.755, 0.656, -0.656, 0.755, -2755.962, -306.969)" fill="#fff" fill-rule="evenodd"/>
  </g>
</svg>
