<svg xmlns="http://www.w3.org/2000/svg" width="50" height="50" viewBox="0 0 77.262 54.387">
  <g id="Exhaustive_Range_of_Products" data-name="Exhaustive Range of Products" transform="translate(-4.619 -20.806)">
    <g id="Group_14" data-name="Group 14" transform="translate(4.619 20.806)">
      <path id="Path_17" data-name="Path 17" d="M458.225,133.943c-2.973-.013-4.5-1.74-4.271-4.737.252-3.306.437-6.617.682-9.923.38-5.143.758-10.287,1.19-15.425a3.669,3.669,0,0,1,3.786-3.694q6.684-.127,13.373.025a3.718,3.718,0,0,1,3.682,3.456c.162,1.65.289,3.3.423,4.955.561,6.9,1.1,13.806,1.682,20.708a3.962,3.962,0,0,1-4.186,4.636c-2.726.015-5.453,0-8.179,0S460.953,133.956,458.225,133.943Zm16.094-1.612c2.151-.011,2.971-.866,2.8-3q-.955-12.333-1.955-24.661c-.182-2.238-.947-2.91-3.151-2.908-3.977,0-7.954,0-11.932.007a2.447,2.447,0,0,0-2.737,2.6q-.853,11.732-1.734,23.462c-.308,4.033.093,4.5,4.122,4.5h6.628C469.017,132.334,471.668,132.345,474.32,132.331Z" transform="translate(-450.462 -80.008)" fill="#fff"/>
      <path id="Path_18" data-name="Path 18" d="M458.231,133.948v-.126a4.314,4.314,0,0,1-3.1-1.06,4.008,4.008,0,0,1-1.067-2.98c0-.182.007-.367.022-.559.253-3.308.437-6.619.682-9.925.38-5.143.758-10.286,1.19-15.424a3.542,3.542,0,0,1,3.663-3.578q3.017-.056,6.036-.056,3.665,0,7.331.082a3.59,3.59,0,0,1,3.558,3.341c.162,1.648.289,3.3.423,4.953.561,6.9,1.1,13.806,1.682,20.708.015.167.021.331.021.492a3.784,3.784,0,0,1-4.081,4.007q-1.58.008-3.162.007c-1.672,0-3.344,0-5.017,0H466.2l-4.768,0q-1.6,0-3.2-.005v.254q1.6.006,3.2.006,2.384,0,4.768,0h.213c1.672,0,3.344,0,5.017,0q1.581,0,3.164-.007a4.041,4.041,0,0,0,4.333-4.261c0-.168-.007-.338-.022-.513-.577-6.9-1.121-13.805-1.682-20.708-.134-1.652-.261-3.3-.423-4.957a3.845,3.845,0,0,0-3.806-3.57q-3.667-.083-7.336-.083-3.022,0-6.042.057a3.8,3.8,0,0,0-3.91,3.811c-.433,5.14-.811,10.284-1.19,15.426-.244,3.309-.43,6.619-.682,9.923-.016.2-.023.391-.023.579a4.262,4.262,0,0,0,1.143,3.162,4.565,4.565,0,0,0,3.276,1.133Zm16.094-1.612v.127a3.34,3.34,0,0,0,2.235-.622,2.505,2.505,0,0,0,.717-2c0-.163-.007-.335-.022-.515q-.955-12.332-1.955-24.661a2.713,2.713,0,0,0-3.267-3.025h-4.982q-3.479,0-6.96.006a2.873,2.873,0,0,0-2.064.685,3.023,3.023,0,0,0-.8,2.038q-.855,11.732-1.734,23.462c-.05.659-.081,1.223-.081,1.71,0,1.242.21,2.008.9,2.435a7.058,7.058,0,0,0,3.434.493h7l4.335,0q1.622,0,3.246-.006v-.255q-1.624.009-3.245.007l-4.335,0h-7a6.91,6.91,0,0,1-3.3-.454c-.572-.356-.774-.99-.777-2.22,0-.475.031-1.034.081-1.69q.9-11.73,1.733-23.464a2.776,2.776,0,0,1,.723-1.872,2.619,2.619,0,0,1,1.888-.615q3.479-.008,6.959-.006h4.982a2.475,2.475,0,0,1,3.013,2.792q1,12.328,1.956,24.66c.014.174.02.339.02.495a2.256,2.256,0,0,1-.629,1.811,3.1,3.1,0,0,1-2.069.558Z" transform="translate(-450.468 -80.013)" fill="#fff"/>
      <path id="Path_19" data-name="Path 19" d="M466.129,81.114c1.953,0,3.908-.043,5.857.038.38.016.739.517,1.109.793-.363.273-.7.711-1.095.784a9.312,9.312,0,0,1-2.2.032c-.783-.047-1.026.29-1.013,1.041.031,2.174.05,4.35-.007,6.523-.026.942.23,1.3,1.232,1.285a2.421,2.421,0,0,1,2.556,2.47c.042.956.04,1.916.006,2.874a2.439,2.439,0,0,1-2.427,2.5q-3.756.074-7.515,0a2.441,2.441,0,0,1-2.423-2.389c-.044-.7-.016-1.4-.017-2.1,0-2.48.651-3.2,3.14-3.375.573-.041.9-.2.893-.838-.014-2.4,0-4.791-.023-7.186,0-.24-.23-.685-.352-.685-1.5,0-3.074-.586-4.44.559-1.608,1.349-3.243,2.665-4.868,3.992-.436.357-.92.78-1.436.21-.576-.634-.05-1.085.41-1.462,1.85-1.519,3.691-3.049,5.587-4.506a2.984,2.984,0,0,1,1.615-.535c1.8-.065,3.611-.024,5.416-.024Zm3.117,16.812a2.087,2.087,0,0,0,.765-.037c1.641-.694.754-2.154.931-3.279a1.09,1.09,0,0,0-1.136-1.408q-3.412-.028-6.825,0a1.05,1.05,0,0,0-1.144,1.182c-.049,3.861-.238,3.56,3.224,3.546.44,0,.882,0,1.323,0v0C467.337,97.927,468.291,97.928,469.246,97.925ZM465.8,90.646c.022.319.415.613.639.919.225-.294.638-.585.644-.885q.085-3.518,0-7.039c-.006-.287-.435-.566-.668-.848-.217.308-.6.605-.622.927-.075,1.168-.029,2.345-.029,3.519C465.767,88.374,465.719,89.514,465.8,90.646Z" transform="translate(-450.51 -80.84)" fill="#fff"/>
      <path id="Path_20" data-name="Path 20" d="M466.135,81.119v.127c1.015,0,2.029-.011,3.042-.011.938,0,1.876.009,2.81.049a.871.871,0,0,1,.479.266c.177.157.361.353.558.5l.076-.1-.077-.1c-.378.293-.716.71-1.041.76a5.6,5.6,0,0,1-1.006.079c-.386,0-.779-.025-1.168-.048l-.144-.005a.959.959,0,0,0-.783.291,1.268,1.268,0,0,0-.221.83v.054c.017,1.157.03,2.314.03,3.472,0,1.016-.01,2.03-.037,3.045l0,.125a1.371,1.371,0,0,0,.278.98,1.323,1.323,0,0,0,1.008.311h.135a2.292,2.292,0,0,1,2.369,2.349q.031.733.031,1.47,0,.7-.026,1.395a2.309,2.309,0,0,1-2.3,2.373q-1.843.038-3.687.037-1.913,0-3.825-.037a2.312,2.312,0,0,1-2.3-2.269c-.019-.306-.024-.614-.024-.923,0-.376.007-.754.007-1.133v-.049a2.6,2.6,0,0,1,3.023-3.237,1.273,1.273,0,0,0,.732-.223.884.884,0,0,0,.279-.732v-.009c-.013-2.394,0-4.791-.023-7.188a1.208,1.208,0,0,0-.144-.489l-.13-.2a.283.283,0,0,0-.2-.118h-.009c-.739,0-1.514-.148-2.287-.148a3.271,3.271,0,0,0-2.225.738c-1.607,1.348-3.241,2.664-4.867,3.99a1.549,1.549,0,0,1-.82.46.592.592,0,0,1-.442-.237.7.7,0,0,1-.22-.46c-.009-.276.3-.563.617-.819,1.85-1.52,3.69-3.049,5.584-4.5a2.858,2.858,0,0,1,1.543-.508c.8-.029,1.594-.037,2.393-.037,1,0,2.01.013,3.018.013v-.127h-.126v.133h.126v-.127h.127v-.132h-.127c-1,0-2.01-.014-3.018-.014-.8,0-1.6.008-2.4.038a3.094,3.094,0,0,0-1.688.562c-1.9,1.458-3.742,2.989-5.591,4.508-.312.262-.7.564-.71,1.016a.944.944,0,0,0,.285.63.848.848,0,0,0,.63.32,1.732,1.732,0,0,0,.981-.517c1.625-1.327,3.26-2.644,4.869-3.993a3.013,3.013,0,0,1,2.063-.68c.741,0,1.516.148,2.287.148h.009v-.061l-.022.057.022,0v-.061l-.022.057v0l0,0h0v0l0,0a.73.73,0,0,1,.154.236.907.907,0,0,1,.093.328c.027,2.393.01,4.789.023,7.186h0v.01a.637.637,0,0,1-.186.535,1.054,1.054,0,0,1-.589.167,2.839,2.839,0,0,0-3.259,3.489v.013h0V95c0,.376-.008.754-.008,1.133,0,.312.006.625.025.938a2.568,2.568,0,0,0,2.547,2.507q1.915.036,3.83.037,1.846,0,3.692-.035a2.569,2.569,0,0,0,2.551-2.618c.016-.468.025-.936.025-1.4q0-.741-.031-1.48a2.548,2.548,0,0,0-2.623-2.592h-.135a1.086,1.086,0,0,1-.825-.232,1.139,1.139,0,0,1-.208-.8l0-.119c.026-1.017.037-2.034.037-3.051,0-1.16-.013-2.318-.03-3.477v-.049a1.029,1.029,0,0,1,.163-.667.71.71,0,0,1,.588-.2l.128,0c.389.023.787.05,1.184.05a5.816,5.816,0,0,0,1.052-.085c.472-.1.8-.553,1.148-.807l.135-.1-.135-.1c-.172-.128-.353-.321-.543-.488a1.093,1.093,0,0,0-.637-.33c-.939-.04-1.88-.049-2.82-.049-1.015,0-2.028.011-3.042.011v.126h0Zm3.117,16.812,0,.127h0c.129,0,.278.017.43.017a.965.965,0,0,0,.38-.064,1.6,1.6,0,0,0,1.092-1.622c0-.485-.109-.982-.107-1.426a2.078,2.078,0,0,1,.023-.328,1.977,1.977,0,0,0,.025-.31,1.251,1.251,0,0,0-.317-.883,1.307,1.307,0,0,0-.968-.362q-1.583-.013-3.166-.013-1.83,0-3.662.014a1.26,1.26,0,0,0-.942.348,1.366,1.366,0,0,0-.329.96c-.007.6-.019,1.1-.019,1.523,0,.927.042,1.462.357,1.8s.837.359,1.688.362c.37,0,.807-.008,1.327-.01h1.448v-.13h-.126v.126h1.431l1.432,0V97.8h-2.99v.13h.127v-.127h-1.322c-.522,0-.959.01-1.326.01-.851,0-1.3-.058-1.505-.284s-.289-.7-.286-1.624c0-.414.011-.916.019-1.52a1.119,1.119,0,0,1,.259-.788,1.011,1.011,0,0,1,.76-.269q1.829-.013,3.66-.013,1.583,0,3.164.011a1.052,1.052,0,0,1,.786.284,1,1,0,0,1,.247.708,1.752,1.752,0,0,1-.022.27,2.271,2.271,0,0,0-.027.367c0,.481.11.979.109,1.426a1.336,1.336,0,0,1-.937,1.388.722.722,0,0,1-.281.044c-.133,0-.281-.017-.43-.017h-.005ZM465.8,90.651l-.126.008a.979.979,0,0,0,.273.539c.135.158.287.306.389.447l.1.137.1-.135c.1-.135.259-.28.4-.433a.869.869,0,0,0,.273-.526q.042-1.793.043-3.587,0-1.73-.04-3.459a.818.818,0,0,0-.286-.511c-.143-.146-.306-.286-.411-.414l-.106-.127-.095.136c-.1.142-.248.292-.379.451a1,1,0,0,0-.266.541c-.034.532-.044,1.066-.044,1.6,0,.644.014,1.288.014,1.929v.105c0,.579-.011,1.161-.011,1.743,0,.523.009,1.046.046,1.568l.126-.008.126-.009c-.035-.514-.045-1.03-.045-1.55,0-.578.011-1.161.011-1.743v-.106c0-.644-.014-1.287-.014-1.928,0-.529.009-1.057.044-1.581a.757.757,0,0,1,.209-.4c.12-.147.271-.3.389-.467l-.1-.073-.1.08c.127.154.3.294.426.43a.61.61,0,0,1,.214.34Q467,85.374,467,87.1q0,1.791-.042,3.58a.66.66,0,0,1-.208.363c-.126.141-.288.288-.411.448l.1.077.1-.075c-.121-.165-.277-.315-.4-.461a.753.753,0,0,1-.214-.39Z" transform="translate(-450.515 -80.846)" fill="#fff"/>
      <path id="Path_21" data-name="Path 21" d="M452.734,89.394c.48-.535.993-.572,1.374,0a9.858,9.858,0,0,1,1.99,5.174,2.38,2.38,0,0,1-2.662,2.551,2.457,2.457,0,0,1-2.706-2.545A11.843,11.843,0,0,1,452.734,89.394Zm-.325,5.351c.074.784.772.809,1.254.628.351-.132.811-.7.77-1.016a16.968,16.968,0,0,0-.718-2.6l-.383-.014A4.7,4.7,0,0,0,452.409,94.745Z" transform="translate(-450.603 -80.495)" fill="#fff"/>
      <path id="Path_22" data-name="Path 22" d="M452.74,89.4l.094.085a.926.926,0,0,1,.642-.373.659.659,0,0,1,.532.36,9.741,9.741,0,0,1,1.969,5.106v.093a2.219,2.219,0,0,1-.676,1.707,2.708,2.708,0,0,1-1.86.621h-.017a2.327,2.327,0,0,1-2.562-2.421v-.029a11.9,11.9,0,0,1,1.972-5.065l-.094-.085-.1-.085a11.983,11.983,0,0,0-2.036,5.234v.034a2.584,2.584,0,0,0,2.816,2.669h.018a2.956,2.956,0,0,0,2.03-.688,2.472,2.472,0,0,0,.759-1.893v-.1a9.995,9.995,0,0,0-2.01-5.241.91.91,0,0,0-.744-.473,1.167,1.167,0,0,0-.831.457Zm-.325,5.351-.126.011a.907.907,0,0,0,.312.65.919.919,0,0,0,.583.186,1.538,1.538,0,0,0,.529-.1,1.483,1.483,0,0,0,.567-.454,1.138,1.138,0,0,0,.288-.64l0-.057a17.085,17.085,0,0,0-.722-2.616l-.026-.088-.092,0-.383-.015-.073,0-.039.062a5.093,5.093,0,0,0-.958,2.735c0,.113.005.227.017.342l.126-.011.126-.013c-.01-.108-.015-.214-.015-.318a4.837,4.837,0,0,1,.918-2.6l-.107-.068-.005.127.384.014,0-.127-.121.037a16.981,16.981,0,0,1,.713,2.576l0,.025a.926.926,0,0,1-.233.481,1.238,1.238,0,0,1-.458.375,1.259,1.259,0,0,1-.439.084.67.67,0,0,1-.425-.128.654.654,0,0,1-.218-.477Z" transform="translate(-450.608 -80.5)" fill="#fff"/>
      <path id="Path_23" data-name="Path 23" d="M461.277,111.42c.756-2.04,2.127-3.7,4.5-3.915a4.49,4.49,0,0,1,4.4,2.62,12.773,12.773,0,0,1,.076,13.072c-2.053,3.693-6.02,3.679-8.324.122a11.2,11.2,0,0,1-1.7-6.418A18.387,18.387,0,0,1,461.277,111.42Zm2.127,11.173c1.549,2.307,3.626,2.348,5.247.112,2.277-3.141,2.229-9.036-.1-12.111-1.493-1.973-3.569-1.945-5.013.065a11.1,11.1,0,0,0-1.732,6.434A10.678,10.678,0,0,0,463.4,122.593Z" transform="translate(-450.186 -79.684)" fill="#fff"/>
      <path id="Path_24" data-name="Path 24" d="M461.282,111.425l.119.045c.752-2.018,2.081-3.618,4.391-3.834.141-.013.279-.019.413-.02a4.435,4.435,0,0,1,3.868,2.575,13.415,13.415,0,0,1,1.821,6.574,13.016,13.016,0,0,1-1.745,6.374,4.662,4.662,0,0,1-3.992,2.715,5.048,5.048,0,0,1-4.116-2.6,10.966,10.966,0,0,1-1.678-6.106l0-.241s.017-.752.156-1.81a15.569,15.569,0,0,1,.878-3.625v0h0l-.119-.045-.118-.047a18.518,18.518,0,0,0-1.052,5.524l0,.246a11.23,11.23,0,0,0,1.719,6.244,5.3,5.3,0,0,0,4.33,2.716,4.913,4.913,0,0,0,4.213-2.845,13.258,13.258,0,0,0,1.778-6.5,13.659,13.659,0,0,0-1.854-6.7,4.687,4.687,0,0,0-4.09-2.706c-.143,0-.288.007-.436.021-2.432.224-3.845,1.935-4.606,4l.119.044-.118-.047Zm2.127,11.173-.105.071a3,3,0,0,0,5.455.115,11.6,11.6,0,0,0-.1-12.263,2.975,2.975,0,0,0-5.218.068,11.188,11.188,0,0,0-1.756,6.443v.071a10.814,10.814,0,0,0,1.619,5.565l.105-.07.105-.071a10.566,10.566,0,0,1-1.576-5.436l-.126.006h.126v-.064a10.955,10.955,0,0,1,1.708-6.3,2.727,2.727,0,0,1,4.81-.063,11.356,11.356,0,0,1,.1,11.96,2.75,2.75,0,0,1-5.039-.108Z" transform="translate(-450.192 -79.69)" fill="#fff"/>
      <path id="Path_25" data-name="Path 25" d="M501.718,81.1h-22.9c-.16,0-.32.009-.48,0-.383-.023-.548.162-.548.533,0,.977-.053,1.957,0,2.93.072,1.256.228,2.505.348,3.758q.413,4.293.828,8.586.582,5.961,1.176,11.921c.3,3.041.639,6.078.893,9.122s.446,6.09.622,9.137c.068,1.155.005,2.317.017,3.476a4.287,4.287,0,0,0,4.243,4.374q4.4.078,8.813,0a4.182,4.182,0,0,0,4.224-4.239c-.005-.939,0-5.877.009-6.813h0c.25-2.706,1.244-13.21,1.3-13.8q.573-6.444,1.156-12.888c.209-2.348.433-4.693.6-7.044.2-2.744.357-5.493.505-8.241C502.562,81.117,502.5,81.1,501.718,81.1Zm-7.178,52.513c-2.816-.053-5.633-.005-8.45-.017a2.935,2.935,0,0,1-3.1-3.072c-.013-1.538.015-3.075-.011-4.613-.009-.529.184-.692.7-.687,2.216.02,4.433.008,6.651.008v0h7.329c0,1.709,0,4.552.025,5.269A3.054,3.054,0,0,1,494.54,133.608ZM501.1,86.029c-.321,3.519-.629,7.039-.947,10.559-.449,4.978-2,21.515-2.526,27.312-3.222,0-10.978,0-13.746,0-.958,0-.939-.005-1.031-.934-.459-4.669-.934-9.336-1.392-14-.368-3.756-.716-7.513-1.083-11.269q-.573-5.871-1.169-11.741c-.073-.722-.042-.783.71-.784q5.126,0,10.251,0v0H500.3C501.18,85.166,501.181,85.184,501.1,86.029Zm-.536-2.2c-3.457-.016-6.914-.008-10.37-.008v0q-5.186,0-10.37,0a.782.782,0,0,1-.681-1.209l.237-.149a2.06,2.06,0,0,1,.418-.021q10.341,0,20.68-.01c.576,0,.765.17.748.748C501.213,83.667,501.061,83.829,500.567,83.827Z" transform="translate(-449.419 -80.84)" fill="#fff"/>
      <path id="Path_26" data-name="Path 26" d="M501.724,81.1v-.126h-22.9c-.107,0-.212,0-.314,0l-.158-.005-.069,0a.593.593,0,0,0-.466.18.71.71,0,0,0-.147.483c0,.641-.024,1.285-.024,1.931,0,.335.006.671.026,1.006.071,1.261.228,2.512.348,3.763q.413,4.293.828,8.586.582,5.961,1.176,11.921c.3,3.042.639,6.078.893,9.121s.446,6.086.622,9.133c.024.415.031.832.031,1.25,0,.639-.017,1.282-.017,1.926,0,.1,0,.2,0,.293a4.417,4.417,0,0,0,4.368,4.5q2.208.039,4.418.04t4.4-.042a4.31,4.31,0,0,0,4.349-4.34V130.7c0-.331,0-1.155,0-2.127,0-1.79,0-4.079.011-4.685l0-.145-.148.018.016.126.126.011c.251-2.706,1.244-13.209,1.3-13.8q.575-6.443,1.158-12.887c.208-2.348.432-4.694.6-7.046.2-2.746.358-5.495.505-8.243.006-.112.009-.21.009-.3a1.065,1.065,0,0,0-.039-.334.408.408,0,0,0-.318-.28,2.737,2.737,0,0,0-.58-.034v.254a1.537,1.537,0,0,1,.594.054l.064.085a.859.859,0,0,1,.026.256c0,.079,0,.173-.009.283-.147,2.747-.307,5.495-.5,8.238-.17,2.349-.394,4.694-.6,7.041q-.573,6.444-1.157,12.888c-.053.59-1.047,11.1-1.3,13.8l-.015.158.161-.021-.016-.125-.127,0c-.008.61-.011,2.9-.011,4.688,0,.972,0,1.8,0,2.127v.026a4.054,4.054,0,0,1-4.1,4.085q-2.2.044-4.394.043t-4.414-.04a4.163,4.163,0,0,1-4.119-4.248c0-.1,0-.194,0-.291,0-.64.017-1.283.017-1.926,0-.422-.007-.843-.031-1.265-.176-3.048-.37-6.1-.623-9.141s-.593-6.084-.893-9.124q-.589-5.961-1.176-11.921-.42-4.293-.828-8.586c-.12-1.255-.276-2.5-.347-3.752-.02-.329-.025-.66-.025-.992,0-.64.023-1.284.023-1.931A.467.467,0,0,1,478,81.32a.339.339,0,0,1,.275-.093h.053l.173.005c.109,0,.213,0,.315,0h22.9Zm-7.178,52.513,0-.127c-1.057-.02-2.115-.025-3.172-.025-1.438,0-2.877.01-4.314.01l-.964,0a2.806,2.806,0,0,1-2.973-2.946c0-.333,0-.667,0-1,0-.668,0-1.336,0-2.005,0-.535,0-1.072-.013-1.609v-.032a.547.547,0,0,1,.116-.42.633.633,0,0,1,.435-.106h.018c1.033.009,2.065.011,3.1.011,1.186,0,2.372,0,3.558,0h.126v-.129h-.126v.127h7.329v-.127h-.127c0,.384,0,.825,0,1.286,0,1.593.006,3.426.027,3.988v.093a2.933,2.933,0,0,1-.794,1.967,2.9,2.9,0,0,1-2.159.923h-.064v.127l0,.126h.067a3.186,3.186,0,0,0,3.208-3.143l0-.1c-.021-.551-.027-2.388-.027-3.979,0-.461,0-.9,0-1.285V125.1h-7.582v.129h.127v-.127c-1.187,0-2.373,0-3.558,0-1.031,0-2.062,0-3.092-.011h-.022a.861.861,0,0,0-.609.174.79.79,0,0,0-.2.605v.037c.009.534.011,1.069.011,1.6,0,.668,0,1.336,0,2.005q0,.5,0,1a3.062,3.062,0,0,0,3.225,3.2l.966,0c1.439,0,2.877-.01,4.314-.01,1.056,0,2.112.005,3.167.025Zm6.563-47.579-.126-.011c-.321,3.519-.629,7.039-.947,10.559-.449,4.978-2,21.514-2.526,27.312l.126.011v-.127H483.89c-.482.006-.7-.019-.755-.085-.07-.049-.11-.266-.15-.735-.459-4.669-.934-9.336-1.392-14-.368-3.755-.716-7.512-1.083-11.269q-.573-5.871-1.169-11.741c-.016-.153-.026-.276-.026-.366l.022-.169c.021-.041.031-.055.123-.08a2.339,2.339,0,0,1,.465-.028l4.659,0H490.3V85.17h-.126V85.3h10.131a2.1,2.1,0,0,1,.622.045l.06.055.024.177c0,.106-.013.255-.03.448l.126.011.126.011c.018-.193.031-.344.031-.471a.684.684,0,0,0-.045-.281.41.41,0,0,0-.331-.224,3.88,3.88,0,0,0-.584-.026H490.048v.128h.127v-.126h-5.592l-4.659,0a1.565,1.565,0,0,0-.647.078l-.174.187a.68.68,0,0,0-.042.266c0,.11.011.236.027.391q.6,5.87,1.169,11.741c.367,3.756.715,7.512,1.083,11.269.458,4.669.933,9.336,1.392,14,.051.46.048.711.231.9.2.169.451.147.927.152h13.862l.011-.116c.522-5.8,2.077-22.333,2.526-27.312.317-3.52.625-7.04.947-10.559Zm-.536-2.2v-.126q-2.677-.013-5.354-.01l-5.018,0v.126h.127v-.129h-10.5a.657.657,0,0,1-.68-.65.7.7,0,0,1,.107-.365l-.107-.067.068.108.237-.149-.068-.108.026.124.246-.019h8.99q5.918,0,11.836-.011h.006a.743.743,0,0,1,.492.113c.076.067.123.193.123.442v.065a.622.622,0,0,1-.113.425.563.563,0,0,1-.413.105h-.009v.254h.007a.8.8,0,0,0,.594-.181.854.854,0,0,0,.186-.6v-.071a.8.8,0,0,0-.208-.63.96.96,0,0,0-.661-.177h-.007q-5.917.014-11.835.011h-8.99a1.418,1.418,0,0,0-.3.025l-.023,0-.256.162-.025.017-.016.025a.95.95,0,0,0-.144.5.912.912,0,0,0,.932.9H490.2v-.127h-.126v.13h.126l5.018,0q2.676,0,5.352.01h0Z" transform="translate(-449.424 -80.846)" fill="#fff"/>
      <path id="Path_27" data-name="Path 27" d="M501.724,81.1v-.126h-22.9c-.109,0-.214,0-.315,0l-.158,0-.069,0a.594.594,0,0,0-.466.18.711.711,0,0,0-.147.483c0,.641-.023,1.285-.023,1.931,0,.335.006.671.025,1.006.072,1.261.228,2.512.348,3.763q.413,4.292.828,8.586.584,5.961,1.176,11.921c.3,3.042.639,6.078.892,9.12s.447,6.087.623,9.134c.025.414.031.832.031,1.249,0,.64-.017,1.282-.017,1.926,0,.1,0,.2,0,.294a4.418,4.418,0,0,0,4.368,4.5q2.208.039,4.418.04t4.4-.042a4.311,4.311,0,0,0,4.349-4.34V130.7c0-.331,0-1.155,0-2.127,0-1.79,0-4.079.011-4.685l0-.146-.148.019.016.126.126.013c.251-2.707,1.244-13.21,1.3-13.8q.575-6.444,1.158-12.888c.208-2.348.432-4.694.6-7.046.2-2.746.357-5.495.5-8.243.006-.112.01-.21.01-.3a1.167,1.167,0,0,0-.039-.334.411.411,0,0,0-.319-.28,2.736,2.736,0,0,0-.58-.034v.254a1.51,1.51,0,0,1,.594.055l.064.084a.885.885,0,0,1,.027.256c0,.079,0,.173-.01.283-.147,2.747-.307,5.495-.5,8.238-.169,2.349-.394,4.694-.6,7.041q-.575,6.444-1.158,12.888c-.052.591-1.046,11.1-1.3,13.8l-.015.158.161-.021-.016-.125-.127,0c-.007.61-.011,2.9-.011,4.688,0,.972,0,1.8,0,2.128v.025a4.054,4.054,0,0,1-4.1,4.085q-2.2.044-4.394.043t-4.414-.04a4.162,4.162,0,0,1-4.119-4.248c0-.1,0-.194,0-.292,0-.639.017-1.281.017-1.926,0-.421-.006-.842-.031-1.264-.176-3.048-.369-6.1-.623-9.141s-.594-6.084-.895-9.124q-.589-5.959-1.175-11.921-.42-4.293-.829-8.586c-.12-1.255-.276-2.5-.346-3.752-.019-.329-.025-.66-.025-.992,0-.64.023-1.285.023-1.931a.472.472,0,0,1,.085-.316.339.339,0,0,1,.275-.092h.053l.173.005c.109,0,.214,0,.315,0h22.9Zm-7.178,52.513v-.127c-1.056-.02-2.114-.026-3.171-.026-1.438,0-2.877.011-4.314.011l-.964,0a2.806,2.806,0,0,1-2.973-2.946c0-.333,0-.667,0-1,0-.668,0-1.336,0-2.005,0-.535,0-1.072-.013-1.609v-.032a.547.547,0,0,1,.116-.42.626.626,0,0,1,.435-.106h.018c1.033.009,2.065.011,3.1.011,1.186,0,2.372,0,3.558,0h.126v-.129h-.126v.127h7.329v-.127h-.127c0,.384,0,.825,0,1.286,0,1.593.006,3.426.027,3.988l0,.093a2.944,2.944,0,0,1-.794,1.967,2.9,2.9,0,0,1-2.16.923h-.064v.127l0,.126h.067a3.185,3.185,0,0,0,3.208-3.143l0-.1c-.021-.55-.028-2.387-.027-3.978,0-.461,0-.9,0-1.285V125.1h-7.582v.129h.127v-.127c-1.187,0-2.373,0-3.558,0-1.03,0-2.062,0-3.092-.011h-.022a.865.865,0,0,0-.609.174.79.79,0,0,0-.2.605v.037c.009.534.013,1.069.013,1.6,0,.668,0,1.336,0,2.005q0,.5,0,1a3.062,3.062,0,0,0,3.224,3.2l.967,0c1.439,0,2.878-.01,4.314-.01,1.056,0,2.113.005,3.168.025Zm6.563-47.579-.126-.011c-.32,3.519-.629,7.039-.947,10.559-.448,4.978-2,21.514-2.526,27.312l.126.011v-.127H483.89c-.482.006-.7-.019-.755-.085-.07-.049-.11-.266-.15-.735-.459-4.669-.934-9.337-1.392-14-.37-3.755-.716-7.512-1.085-11.269q-.571-5.871-1.169-11.741c-.015-.153-.025-.276-.025-.366l.023-.169c.02-.041.03-.054.122-.08a2.26,2.26,0,0,1,.465-.028l4.659,0H490.3V85.17h-.126V85.3h10.131a2.1,2.1,0,0,1,.622.045l.061.055.024.177c0,.106-.013.255-.03.448l.126.011.127.011c.017-.193.03-.344.03-.471a.668.668,0,0,0-.046-.281.407.407,0,0,0-.33-.224,3.881,3.881,0,0,0-.585-.026H490.048v.128h.127v-.126h-5.592l-4.659,0a1.565,1.565,0,0,0-.647.078l-.175.187a.7.7,0,0,0-.041.266c0,.11.011.236.027.392q.6,5.87,1.169,11.74c.368,3.756.715,7.512,1.084,11.269.457,4.669.933,9.337,1.391,14,.051.46.048.711.231.9.2.168.451.147.927.152h13.862l.011-.116c.52-5.8,2.076-22.333,2.525-27.312.317-3.52.626-7.04.948-10.559Zm-.537-2.2v-.126q-2.677-.013-5.354-.01l-5.018,0v.126h.127v-.129h-10.5a.656.656,0,0,1-.68-.65.7.7,0,0,1,.107-.365l-.108-.067.067.108.238-.15-.068-.106.026.124.246-.019h8.99q5.918,0,11.835-.01h.007a.739.739,0,0,1,.492.112c.075.067.123.193.123.442v.065a.622.622,0,0,1-.113.425.561.561,0,0,1-.412.105h-.01v.254h.008a.793.793,0,0,0,.594-.182.853.853,0,0,0,.185-.595v-.072a.8.8,0,0,0-.207-.63.965.965,0,0,0-.662-.177h-.008q-5.915.014-11.834.011h-8.99a1.417,1.417,0,0,0-.3.025l-.023,0-.256.163-.025.015-.016.026a.95.95,0,0,0-.144.5.913.913,0,0,0,.933.9H490.2v-.127h-.126v.13h.126l5.018,0q2.676,0,5.352.01h0Z" transform="translate(-449.424 -80.846)" fill="#fff"/>
      <path id="Path_28" data-name="Path 28" d="M501.729,81.106h.127v-.254H478.825c-.111,0-.216,0-.314,0v.126l0-.126-.158,0-.07,0h-.008a.713.713,0,0,0-.555.222.834.834,0,0,0-.18.567c0,.638-.023,1.282-.023,1.931,0,.337.006.675.025,1.014.073,1.266.229,2.52.349,3.767q.413,4.293.828,8.586.584,5.962,1.176,11.922c.3,3.043.639,6.078.892,9.118s.446,6.084.622,9.131c.025.411.032.826.032,1.242,0,.638-.018,1.28-.018,1.926,0,.1,0,.2,0,.3a4.546,4.546,0,0,0,4.494,4.626q2.208.038,4.42.04t4.4-.043a4.437,4.437,0,0,0,4.473-4.462h-.077l.077.006v-.006h-.077l.077.006V130.7c0-.331,0-1.155,0-2.127,0-1.789,0-4.079.011-4.683l0-.146,0-.146-.293.038-.126.016.031.252.014.1.227.022.126.011.013-.126c.25-2.706,1.244-13.209,1.3-13.8q.575-6.444,1.158-12.889c.208-2.345.432-4.693.6-7.048.2-2.746.357-5.5.505-8.244.005-.114.009-.213.009-.3h0a1.264,1.264,0,0,0-.044-.371l-.121.038.122-.035a.538.538,0,0,0-.418-.368l-.024.124.029-.123a2.828,2.828,0,0,0-.61-.039H501.6v.509h.2c.141,0,.253,0,.331.013l.091.015.022.006,0,0,.006-.014-.008.013h0l.006-.014-.008.013.071-.105-.1.076.064.085.1-.077-.12.042a.793.793,0,0,1,.02.214c0,.075,0,.167-.009.277-.148,2.746-.308,5.493-.505,8.236-.168,2.346-.393,4.69-.6,7.038q-.574,6.444-1.158,12.888c-.052.589-1.046,11.095-1.3,13.8l-.015.158-.015.158.317-.04.126-.016-.032-.253-.014-.109-.237,0-.127,0v.127c-.008.612-.013,2.9-.013,4.69,0,.972,0,1.8,0,2.128v.025a3.927,3.927,0,0,1-3.975,3.959q-2.2.042-4.392.042t-4.412-.04a4.033,4.033,0,0,1-3.994-4.123c0-.1,0-.192,0-.29,0-.637.017-1.279.017-1.926,0-.422-.007-.847-.032-1.271-.176-3.049-.368-6.1-.622-9.144s-.595-6.087-.9-9.126q-.589-5.959-1.175-11.921-.42-4.292-.829-8.585c-.12-1.257-.276-2.5-.345-3.748-.019-.325-.024-.653-.024-.984,0-.637.022-1.282.022-1.931a.363.363,0,0,1,.053-.232c.022-.023.049-.047.181-.05v-.126l-.005.126.054,0,.174,0h0c.112,0,.217,0,.315,0h23.03v-.255H501.6v.127h.127v-.127h-22.9c-.1,0-.209,0-.314,0v.127l0-.127-.173,0-.052,0h-.005a.47.47,0,0,0-.368.135.6.6,0,0,0-.117.4c0,.644-.023,1.288-.023,1.931,0,.334.006.667.025,1,.071,1.256.228,2.505.347,3.758q.413,4.293.829,8.586.582,5.961,1.175,11.921c.3,3.041.639,6.078.895,9.123s.446,6.089.623,9.136c.024.419.031.837.031,1.257,0,.642-.017,1.285-.017,1.926,0,.1,0,.2,0,.293a4.288,4.288,0,0,0,4.243,4.374q2.206.041,4.416.04t4.4-.042a4.181,4.181,0,0,0,4.223-4.213V130.7c0-.332,0-1.157,0-2.128,0-1.79,0-4.078.013-4.687h-.127l0,.126h.017l0,.016.126-.016-.016-.125-.161.02.016.126.126.011.015-.158c.252-2.706,1.245-13.209,1.3-13.8q.575-6.444,1.158-12.888c.208-2.348.432-4.693.6-7.044.2-2.744.357-5.492.505-8.24.005-.111.009-.207.009-.29a.955.955,0,0,0-.033-.3l-.006-.019-.076-.1-.013-.018-.018-.011a.511.511,0,0,0-.231-.064c-.094-.009-.212-.014-.357-.014h-.078v.127h.127v-.254h-.127v.126a2.625,2.625,0,0,1,.551.032h.005a.283.283,0,0,1,.221.19h0a1.069,1.069,0,0,1,.032.3h0c0,.082,0,.178-.009.29-.148,2.747-.308,5.5-.505,8.24-.169,2.35-.395,4.7-.6,7.044q-.575,6.444-1.158,12.888c-.053.591-1.047,11.1-1.3,13.8l.126.013.011-.127-.025,0,0-.025-.125.016.016.126.149-.019-.017-.126h-.126l0,.145c-.008.607-.013,2.9-.013,4.687,0,.972,0,1.8,0,2.127v.026h.127l-.126-.009v.014a4.182,4.182,0,0,1-4.223,4.209q-2.2.044-4.4.042t-4.416-.04a4.289,4.289,0,0,1-4.243-4.374c0-.1,0-.2,0-.293,0-.641.017-1.284.017-1.926,0-.419-.007-.838-.032-1.257-.176-3.048-.368-6.095-.623-9.137s-.592-6.081-.892-9.122q-.589-5.961-1.176-11.921-.42-4.293-.828-8.586c-.12-1.253-.276-2.5-.348-3.757-.019-.333-.025-.666-.025-1,0-.643.023-1.287.023-1.931a.584.584,0,0,1,.117-.4.46.46,0,0,1,.364-.136h0v-.127l0,.127.07,0,.158,0h0c.1,0,.21,0,.315,0h22.9v-.126H501.6v.126Zm-7.178,52.513.126,0,0-.127,0-.126-.126,0c-1.058-.02-2.117-.026-3.174-.026-1.439,0-2.878.01-4.314.01l-.964,0a2.677,2.677,0,0,1-2.846-2.82c0-.332,0-.665,0-1,0-.667,0-1.336,0-2.005q0-.8-.011-1.611l-.127,0h.127v-.032c0-.221.046-.3.074-.327h0a.528.528,0,0,1,.339-.07h.026q1.548.013,3.1.011c1.186,0,2.373,0,3.558,0h.254v-.383h-.381v.381h7.582v-.381h-.38v.127c0,.383,0,.825,0,1.286,0,1.594.006,3.424.027,3.993l.127,0-.127,0,0,.094.127,0h-.127a2.819,2.819,0,0,1-.76,1.88,2.769,2.769,0,0,1-2.067.882h-.188l0,.253,0,.126,0,.128h.2a3.311,3.311,0,0,0,3.335-3.269h0l0-.1v0h0c-.019-.511-.026-2.165-.026-3.68v-.293c0-.461,0-.9,0-1.285v-.255h-7.837v.383h.381v-.38h-.126c-1.187,0-2.373,0-3.558,0q-1.545,0-3.091-.013h-.023a.982.982,0,0,0-.694.209.905.905,0,0,0-.237.7v.039q.013.8.011,1.6c0,.668,0,1.336,0,2.005,0,.334,0,.669,0,1a3.192,3.192,0,0,0,3.352,3.323h.966c1.44,0,2.878-.01,4.314-.01,1.056,0,2.112.006,3.165.026l.127,0,0-.254-.126,0-.127,0,0,.126.127,0,0-.126c-1.056-.02-2.114-.026-3.17-.026-1.437,0-2.876.01-4.314.01H486.1a2.935,2.935,0,0,1-3.1-3.072c0-.334,0-.667,0-1,0-.668,0-1.337,0-2.005q0-.8-.012-1.606l-.127,0h.127v-.037a.66.66,0,0,1,.157-.513.733.733,0,0,1,.521-.14h.022c1.029.009,2.061.011,3.092.011,1.186,0,2.373,0,3.558,0v-.127h-.127v.127h.127v0h7.328c0,.383,0,.824,0,1.285,0,.1,0,.2,0,.293,0,1.519.007,3.167.027,3.69l.127-.005-.127,0,0,.1.127,0H497.7a3.057,3.057,0,0,1-3.08,3.016h-.066v.126l.126,0,0-.126,0-.127-.127,0v.127h.063a3.022,3.022,0,0,0,2.254-.963,3.062,3.062,0,0,0,.828-2.052v0l0-.093v0c-.021-.556-.026-2.391-.026-3.983,0-.461,0-.9,0-1.286h-.127v.126h.128v-.127H490.34v.127h.126v-.127h-.126v0h0c-1.187,0-2.373,0-3.558,0q-1.547,0-3.095-.011h-.019v.126l0-.126h-.013a.728.728,0,0,0-.516.141l.089.092-.087-.094a.669.669,0,0,0-.156.514v.034h0q.013.8.012,1.606c0,.668,0,1.337,0,2.005,0,.334,0,.667,0,1a2.936,2.936,0,0,0,3.1,3.072h.965c1.438,0,2.876-.01,4.314-.01,1.056,0,2.113.006,3.169.026l0-.127-.126,0,0,.127Zm6.563-47.579.011-.126L501,85.9l-.126-.011-.012.126c-.321,3.519-.629,7.039-.947,10.559-.448,4.978-2,21.514-2.526,27.312l-.011.126.253.023.139.013v-.392H483.763a3.381,3.381,0,0,1-.422-.019l-.094-.021-.015-.006-.016.025.022-.018-.006-.007-.016.025.022-.018-.011-.014-.014-.01-.015.021.022-.015-.007-.006-.015.021.022-.015a2.189,2.189,0,0,1-.1-.647v0h0c-.459-4.669-.934-9.337-1.392-14-.369-3.755-.716-7.511-1.085-11.269q-.571-5.871-1.169-11.741c-.015-.152-.025-.272-.025-.354h-.126l.125.018.023-.17-.125-.017.114.056,0-.009-.027-.019.016.03.011-.011-.027-.019.016.03.05-.017-.034-.122.03.123a2.213,2.213,0,0,1,.412-.025h10.527v-.382h-.381v.381H500.39a1.949,1.949,0,0,1,.49.032l.054-.115-.086.094.026.024.018.132.126-.017h-.127v.009c0,.1-.013.24-.029.426l-.01.126.252.023.127.011.126.011.011-.127c.017-.192.031-.345.031-.481a.812.812,0,0,0-.056-.332l-.117.051.117-.049a.531.531,0,0,0-.428-.3l-.019.125.022-.124a3.626,3.626,0,0,0-.605-.028H489.926V85.3h.381v-.381H479.929a1.654,1.654,0,0,0-.7.092l-.022.009-.191.2-.017.018-.008.022a.8.8,0,0,0-.05.314c0,.118.011.248.027.4q.595,5.87,1.169,11.74c.368,3.755.715,7.512,1.085,11.269.457,4.669.933,9.337,1.391,14h0c.052.448.038.732.265.972l0,0,0,0c.258.21.544.173,1.008.183h13.979l.022-.231c.52-5.8,2.076-22.333,2.525-27.312.317-3.521.626-7.04.948-10.559l.011-.126-.254-.023-.011.126-.011.126.127.011.011-.126-.127-.011c-.32,3.519-.629,7.039-.947,10.559-.449,4.978-2.005,21.515-2.526,27.312l-.01.115.126.013v-.127H483.9c-.486,0-.7,0-.846-.123l-.081.1.091-.089c-.138-.13-.146-.348-.2-.82l-.126.014.126-.013c-.458-4.669-.934-9.336-1.391-14-.37-3.756-.716-7.513-1.084-11.269q-.573-5.871-1.169-11.741c-.016-.154-.026-.278-.026-.379a.578.578,0,0,1,.031-.218l-.118-.048.093.087.175-.186-.093-.088.055.115a1.47,1.47,0,0,1,.593-.067h10.25v-.126h-.127v.126h.127v0h10.131a3.629,3.629,0,0,1,.563.024h0a.28.28,0,0,1,.232.147v0a.542.542,0,0,1,.034.23c0,.117-.013.266-.03.459l.127.011.01-.126-.126-.011L501,85.9l-.011.126.126.011c.017-.187.03-.332.03-.449v-.019l-.024-.186-.006-.046-.1-.087-.014-.013-.018-.008a1.756,1.756,0,0,0-.6-.056H490.18V85.3h.126v-.127h-.126v0H479.907a2.291,2.291,0,0,0-.472.032h0l-.128.053-.075.093-.008.019-.026.19v.017c0,.1.011.224.026.379q.6,5.87,1.169,11.741c.368,3.756.715,7.513,1.085,11.269.458,4.669.933,9.336,1.392,14l.126-.013-.126.011a5.27,5.27,0,0,0,.066.539.445.445,0,0,0,.139.289l.072-.1-.1.08a.4.4,0,0,0,.264.111,3.685,3.685,0,0,0,.456.021h13.878v-.127h-.127v.127h.127l.012-.126-.126-.011-.011.126.126.011c.522-5.8,2.078-22.334,2.526-27.312.317-3.52.626-7.04.947-10.559l-.126-.011-.011.126.126.011Zm-.537-2.2h.127v-.254h-.126q-2.679-.013-5.355-.01l-5.018,0h-.126v.381h.38v-.384h-5.439l-5.185,0a.529.529,0,0,1-.553-.524.578.578,0,0,1,.089-.3l.066-.108-.216-.133-.463-.285.358.568.067.108.344-.218.108-.068L479.5,82.4l-.375-.594.169.812.022.11.354-.028h8.985q5.918,0,11.836-.011h.015a.642.642,0,0,1,.4.078v0c.033.027.081.111.08.347h.127l-.127,0v.065l.126,0-.126,0c0,.222-.053.32-.075.337l0,0h0c-.016.022-.1.067-.319.066h-.138v.255h.255v-.126l-.255,0v.381h.135a.913.913,0,0,0,.684-.218l0,0h0a.977.977,0,0,0,.221-.68v-.075h0a.924.924,0,0,0-.25-.724h0a1.085,1.085,0,0,0-.745-.208h-.008q-5.915.014-11.834.011h-8.989a1.572,1.572,0,0,0-.325.026l-.025.005-.022.005-.275.174-.024.015-.025.016-.031.05h0a1.075,1.075,0,0,0-.164.565,1.041,1.041,0,0,0,1.059,1.031h10.5V83.7h-.381v.383h5.271q2.676,0,5.351.009h.132l0-.255h-.255v.127h.127v-.127h0q-2.676-.013-5.352-.01l-5.018,0v0h-.126v.127h.126v-.127h-10.37a.785.785,0,0,1-.807-.777.824.824,0,0,1,.126-.432l-.109-.066.108.067.016-.025-.108-.068.068.109.024-.016.238-.15h0a1.368,1.368,0,0,1,.271-.021h8.99q5.918,0,11.835-.011h.007a.854.854,0,0,1,.578.145l.083-.095-.086.094a.682.682,0,0,1,.166.537h.126l-.126,0v.072l.126,0-.126-.005a.737.737,0,0,1-.15.513l.092.088-.09-.089a.677.677,0,0,1-.5.143h-.008v.127h.127v-.127h0v-.126l-.255,0v.126h.255V83.71h-.127v.126h.01a.672.672,0,0,0,.5-.144L501,83.606l.089.091a.731.731,0,0,0,.151-.513v-.067h0a.684.684,0,0,0-.166-.537l-.085.095.087-.093a.835.835,0,0,0-.57-.146h-.016q-5.917.014-11.835.011h-8.994l-.141.01,0-.015-.124.026-.107.068.068.106.108-.068-.068-.106-.238.149.068.108.107-.068-.067-.108-.108.068-.067.109.109.067.066-.109-.108-.067a.822.822,0,0,0-.126.432.783.783,0,0,0,.806.777l5.186,0h5.186v0h.127V83.7h-.127v.126l5.018,0q2.677,0,5.353.01v-.126h-.127v.128h.127Z" transform="translate(-449.429 -80.851)" fill="#fff"/>
    </g>
    <path id="Path_29" data-name="Path 29" d="M525.634,124.75c-.21-1.692-1.538-2.532-2.921-3.246-.34-.176-.7-.314-1.167-.522.318-.338.521-.582.754-.8a5.989,5.989,0,0,0,.249-8.306,6.337,6.337,0,0,0-7.839-1.758,5.239,5.239,0,0,0-1.207.907q-6.064,6.019-12.1,12.061a6.024,6.024,0,0,0,.164,8.374,6.35,6.35,0,0,0,7.794,1.429,1.548,1.548,0,0,1,1.092-.011,18.484,18.484,0,0,0,10.96-.037,7.48,7.48,0,0,0,3.3-1.932,3.277,3.277,0,0,0,.968-2.365A32.653,32.653,0,0,0,525.634,124.75Zm-1.78-.156a1.436,1.436,0,0,1-.388,1.7,6.663,6.663,0,0,1-3.194,1.643c-.175.052-.353.089-.53.133l-.022.005c-.364.089-.731.154-1.1.212l-2.8-6.474h.065C519.895,121.82,523.214,123.021,523.854,124.594Zm-9.667-2.71,2.842,6.563c-.255.011-.509.02-.765.021-.137,0-.271.008-.409.008-4.484,0-8.119-1.492-8.119-3.332h0v-.005C507.745,123.537,510.509,122.2,514.187,121.885Zm-4.483-4.628c1.677-1.64,3.328-3.309,4.988-4.967a3.628,3.628,0,0,1,2.743-1.105,4.827,4.827,0,0,1,4.381,2.75,4.021,4.021,0,0,1-.79,5.052c-.31.31-.639.6-.924.933a1.252,1.252,0,0,1-1.275.467,20.073,20.073,0,0,0-6.194.01,1.185,1.185,0,0,1-.845-.267c-.718-.647-1.375-1.36-2.07-2.031C509.413,117.8,509.358,117.6,509.7,117.257Zm-2.184,14.5a4.717,4.717,0,0,1-4.988-1.86,4.334,4.334,0,0,1,.438-5.932c1.537-1.387,2.939-2.923,4.411-4.383.837-.83.65-.69,1.363,0,.462.448.9.926,1.3,1.35-.963.606-1.863,1.078-2.65,1.693a3.273,3.273,0,0,0-1.311,2.834c.043,1.035.037,2.075.015,3.112a3.1,3.1,0,0,0,.764,2.092c.26.318.561.6.893.953A1.611,1.611,0,0,1,507.521,131.756Zm16.028-2.111a8.807,8.807,0,0,1-2.427,1.509,16.039,16.039,0,0,1-8.722.518,8.14,8.14,0,0,1-3.886-1.683,1.632,1.632,0,0,1-.685-1.742,18.018,18.018,0,0,0,16.218.045C523.938,128.767,523.88,129.373,523.548,129.645Z" transform="translate(-443.834 -58.793)" fill="#fff"/>
  </g>
</svg>
