<svg xmlns="http://www.w3.org/2000/svg" width="50" height="50" viewBox="0 0 71.025 48.226">
  <g id="Free_Home_Delivery" data-name="Free Home Delivery" transform="translate(0 0)">
    <path id="Path_5" data-name="Path 5" d="M787.245,125.6q2.083,0,4.164,0c.317,0,.707-.1.937.052.326.207.733.6.735.913s-.426.665-.737.906c-.156.122-.473.047-.717.047q-34.031,0-68.061,0h-.074c-.981,0-1.44-.31-1.436-.953s.47-.962,1.438-.963q3.157,0,6.315,0h.938c-.285-.3-.422-.477-.59-.616a11.07,11.07,0,0,1-3.029-13.277,3.043,3.043,0,0,0-.035-2.13,28.526,28.526,0,0,1-.4-8.256A12.609,12.609,0,0,1,727.7,98.37c-.4,0-.816,0-1.235,0-2.3-.013-3.348-1.066-3.35-3.383q-.007-6.17,0-12.339c0-2.289,1.039-3.325,3.315-3.326q7.783-.006,15.566,0c2.128,0,3.212,1.072,3.218,3.2.01,3.109,0,6.218,0,9.327,0,.962,0,.964.992.964,2.692,0,5.384-.01,8.076.007A2.788,2.788,0,0,1,756.98,94.9a2.709,2.709,0,0,1-1.49,3.182,4.085,4.085,0,0,1-1.422.277c-.475.029-.722.16-.715.685.02,1.761-.048,3.527.031,5.286a6.816,6.816,0,0,0,13.311,1.487,7.939,7.939,0,0,0,.289-2.673c-.373-4.265-.825-8.524-1.27-12.783-.108-1.038-.259-1.1-1.275-.848s-2.041.5-3.068.722a2.883,2.883,0,1,1-1.037-5.671c1.64-.273,3.284-.525,4.919-.825a1.86,1.86,0,0,0,.879-.459,3.38,3.38,0,0,1,3.541-.8,3.223,3.223,0,0,1,2.288,2.792c.171,1.261.365,2.519.505,3.782a1.043,1.043,0,0,0,.79,1.054A6.961,6.961,0,0,1,777.34,93.7q2.788,5.53,5.551,11.073a1.9,1.9,0,0,0,1.166,1.005,10.922,10.922,0,0,1,7.054,7.124,11.137,11.137,0,0,1-3.365,11.98c-.2.169-.382.355-.573.533Zm-6.482-20.537a4.741,4.741,0,0,0-.223-.653q-2.489-4.944-4.992-9.882a5.166,5.166,0,0,0-2.621-2.449c-1.384-.609-2.837-.377-4.27-.433-.631-.024-.821.221-.757.825q.421,3.942.8,7.887c.2,2.063.508,4.111-.139,6.182a8.975,8.975,0,0,1-9.957,5.925,8.834,8.834,0,0,1-7.179-8.784c.018-.629-.192-.853-.845-.847-3.156.029-6.315.012-9.472.009-.269,0-.61.085-.791-.045a1.86,1.86,0,0,1-.766-.916.786.786,0,0,1,.737-.924,5.189,5.189,0,0,1,.805-.035c2.864,0,5.728.012,8.59,0,1.885-.011,1.737.367,1.735-1.86,0-.5-.208-.692-.711-.691-6.118.01-12.237-.009-18.356.018a3.632,3.632,0,0,0-3.763,3.62c-.046,1.977.1,3.959.187,5.939a3.367,3.367,0,0,0,.26.79c.26-.24.419-.382.574-.529a11.146,11.146,0,0,1,12.995-1.657,11.029,11.029,0,0,1,5.731,8.4c.084.568.3.781.888.779q9.655-.025,19.311,0c.612,0,.847-.207.914-.834a11.068,11.068,0,0,1,8.346-9.362C778.743,105.322,779.714,105.228,780.762,105.065Zm-6.978,20.487.222-.28a2.651,2.651,0,0,1-.589-.28,11.023,11.023,0,0,1-3.9-6.622c-.1-.527-.3-.682-.8-.681q-9.8.019-19.606,0c-.537,0-.787.166-.886.715a10.861,10.861,0,0,1-3.9,6.613,6.23,6.23,0,0,0-.5.532Zm6.721.048a9.24,9.24,0,1,0-9.22-9.2A9.3,9.3,0,0,0,780.505,125.6Zm-34.056-9.263a9.191,9.191,0,1,0-9.2,9.263A9.227,9.227,0,0,0,746.449,116.337ZM734.242,81.242q-3.928,0-7.856,0c-1.008,0-1.31.305-1.311,1.321q-.005,6.28,0,12.559c0,1.033.274,1.3,1.314,1.3q7.746,0,15.491,0c1.122,0,1.4-.268,1.4-1.378q.005-6.2,0-12.411c0-1.084-.31-1.387-1.4-1.388Q738.059,81.239,734.242,81.242Zm15.707,15.181v0c1.418,0,2.836,0,4.254,0a.806.806,0,0,0,.892-.783.753.753,0,0,0-.836-.821c-2.835-.015-5.672-.032-8.507,0-.843.008-.456.767-.543,1.2-.02.1.359.388.56.393C747.16,96.44,748.554,96.423,749.948,96.423Zm19.061-6.7c.219,0,.44,0,.659,0,.9-.011.907-.025.785-.919-.142-1.039-.26-2.082-.4-3.121a1.512,1.512,0,0,0-1.635-1.425,1.554,1.554,0,0,0-1.316,1.8c.084.752.168,1.5.294,2.249C767.695,90.063,767.429,89.686,769.009,89.723Zm-8.347-1.343c1.548-.358,2.89-.629,4.208-.99.677-.186.307-.791.254-1.193-.017-.132-.464-.3-.712-.292a9.656,9.656,0,0,0-1.376.2c-.772.125-1.55.223-2.314.386-.534.114-.931.485-.765,1.049C760.057,87.879,760.445,88.134,760.662,88.38Z" transform="translate(-722.055 -79.318)" fill="#fff"/>
    <path id="Path_6" data-name="Path 6" d="M779.4,105.809c-.284.278-.523.681-.864.805-.56.2-.981-.131-1.194-.679q-.926-2.384-1.842-4.771c-.236-.614-.476-1.226-.7-1.846a1.04,1.04,0,0,1,.515-1.457c.51-.187,1.04.094,1.306.764.551,1.379,1.071,2.771,1.6,4.159.315.818.631,1.636.941,2.457a3.836,3.836,0,0,1,.106.424Z" transform="translate(-725.971 -80.693)" fill="#fff"/>
    <path id="Path_7" data-name="Path 7" d="M779.244,118.843a5.568,5.568,0,0,1,5.571-5.458,5.519,5.519,0,0,1-.11,11.037A5.6,5.6,0,0,1,779.244,118.843Zm2,.019a3.475,3.475,0,0,0,3.481,3.562,3.529,3.529,0,1,0,.066-7.057A3.475,3.475,0,0,0,781.248,118.863Z" transform="translate(-726.31 -81.852)" fill="#fff"/>
    <path id="Path_8" data-name="Path 8" d="M743.639,118.913a5.5,5.5,0,1,1-5.481-5.531A5.531,5.531,0,0,1,743.639,118.913Zm-5.57,3.51a3.53,3.53,0,1,0-3.44-3.6A3.507,3.507,0,0,0,738.069,122.423Z" transform="translate(-722.842 -81.852)" fill="#fff"/>
    <path id="Path_9" data-name="Path 9" d="M728.315,89.084c0-.539-.009-1.077,0-1.616.019-.882.328-1.2,1.193-1.228.513-.016,1.028-.023,1.541,0s.71-.213.7-.7c-.008-.539-.017-1.078.008-1.615a1.062,1.062,0,0,1,1.2-1.167c1.125-.018,2.251-.02,3.377,0a1.022,1.022,0,0,1,1.149,1.133c.023.538.02,1.077.007,1.615s.231.75.76.727,1.077-.024,1.614,0a1,1,0,0,1,1.087,1.115q.036,1.726,0,3.452a1.071,1.071,0,0,1-1.137,1.17,13.17,13.17,0,0,1-1.541,0c-.557-.028-.819.181-.789.764.028.513.02,1.028,0,1.542-.036.791-.355,1.113-1.14,1.126q-1.724.026-3.45,0a1.009,1.009,0,0,1-1.125-1.082c-.037-.585.035-1.182-.047-1.758a.839.839,0,0,0-.561-.555c-.552-.081-1.123-.006-1.685-.037a1.078,1.078,0,0,1-1.162-1.214C728.3,90.21,728.315,89.647,728.315,89.084Zm7.246-2.84h0a6.179,6.179,0,0,0-.017-1.024.637.637,0,0,0-.364-.432c-1.128-.287-1.453-.027-1.453,1.108,0,2.272,0,2.272-2.287,2.272-1.177,0-1.155,0-1.136,1.177.009.514.2.7.7.673s1.026-.014,1.539,0a1.072,1.072,0,0,1,1.179,1.179,14.483,14.483,0,0,1,0,1.539c-.056.731.414.691.9.688.5,0,1.019.059.952-.718-.038-.437-.011-.88-.006-1.32.015-1.051.324-1.363,1.352-1.372.318,0,.636,0,.953,0,1.13,0,1.108,0,1.108-1.13,0-.524-.152-.769-.713-.724-.486.039-.978.016-1.466.006-.894-.019-1.214-.348-1.235-1.261C735.557,86.685,735.56,86.464,735.56,86.244Z" transform="translate(-722.52 -79.573)" fill="#fff"/>
  </g>
</svg>
