<svg xmlns="http://www.w3.org/2000/svg" width="50" height="50" viewBox="0 0 62.456 63.551">
  <g id="Genuine_Medicines" data-name="Genuine Medicines" transform="translate(0 0)">
    <path id="Path_1" data-name="Path 1" d="M332.669,123.127c0-1.249.053-2.5-.011-3.747a8,8,0,0,1,3.515-7.012,20.565,20.565,0,0,1,9.565-3.826,30.308,30.308,0,0,1,16.777,1.694c2.407,1,4.656,2.34,5.988,4.66a9.136,9.136,0,0,1,1.174,3.83c.175,2.76.02,5.54.064,8.312a7.783,7.783,0,0,1-2.74,6.09,19.141,19.141,0,0,1-9.785,4.414,30.557,30.557,0,0,1-16.6-1.287,14.2,14.2,0,0,1-6.162-4.09,7.162,7.162,0,0,1-1.8-4.939C332.7,125.86,332.67,124.493,332.669,123.127Zm33.7,1.974c-10.167,5.5-20.232,5.5-30.311.027-.764,2.984.263,5.184,3.33,6.978a20.8,20.8,0,0,0,8.431,2.567c5.259.564,10.367.064,15.085-2.532C366.008,130.433,366.966,128.371,366.37,125.1Zm-22.639-.284a9.185,9.185,0,0,0,1.059.439,29.8,29.8,0,0,0,10.468.414,18.511,18.511,0,0,0,8.5-3.015c3.639-2.6,3.606-5.538-.032-8.129a1.825,1.825,0,0,0-2.306-.087c-3.969,2.386-7.978,4.708-11.974,7.049C347.652,122.542,345.849,123.585,343.731,124.817Zm14.708-12.461a2.9,2.9,0,0,0-.489-.273,29.73,29.73,0,0,0-11.622-.388,17.646,17.646,0,0,0-8.088,3.159c-3.137,2.39-3.116,5.188.029,7.576.155.117.335.205.479.334a1.49,1.49,0,0,0,1.99.082c5.6-3.309,11.222-6.578,16.836-9.864C357.831,112.832,358.06,112.633,358.439,112.357Z" transform="translate(-332.646 -74.812)" fill="#fff"/>
    <path id="Path_2" data-name="Path 2" d="M353.694,112.705c-1.264-.137-2.262-.188-3.231-.384a1.413,1.413,0,0,1-.77-.793c-1.177-2.759-2.428-5.495-3.444-8.314-2.988-8.29,1.694-18.139,9.984-21.185A17.048,17.048,0,0,1,378.3,91.4c4.246,9.8,8.473,19.606,12.562,29.469a16.115,16.115,0,0,1-2.273,16.9c-3.983,5.143-9.379,7.277-15.883,6.495a16.532,16.532,0,0,1-6.56-2.332c-.322-.193-.609-.444-.909-.666,1.664-2.373,1.664-2.373,4.076-1.288a13.886,13.886,0,0,0,18.533-18.078c-1.666-3.95-3.393-7.873-5.046-11.827-.392-.939-.751-1.218-1.808-.754-5.208,2.286-10.47,4.445-15.686,6.714a2.423,2.423,0,0,1-2.793-.169,17.908,17.908,0,0,0-2.109-1.213c1.686-.735,3.147-1.383,4.617-2.011q7.524-3.209,15.057-6.4a.845.845,0,0,0,.528-1.29c-1.952-4.506-3.754-9.084-5.9-13.495-2.566-5.275-8.271-7.989-14.39-7.2a13.931,13.931,0,0,0-11.329,10.475c-.976,3.935.089,7.463,1.705,10.967C351.7,107.885,352.6,110.13,353.694,112.705Z" transform="translate(-329.822 -80.865)" fill="#fff"/>
  </g>
</svg>
