<svg xmlns="http://www.w3.org/2000/svg" width="50" height="50" viewBox="0 0 74.298 74.194">
  <g id="Medicine_Refill_Reminders" data-name="Medicine Refill Reminders" transform="translate(0 0)">
    <path id="Path_3" data-name="Path 3" d="M624.144,79.484c12.409.551,21.519,6.277,27,17.5a26.562,26.562,0,0,1,2.591,12.13c-.016,1.183.027,1.209,1.176,1.191a13.463,13.463,0,0,1,13.474,10.761,12.717,12.717,0,0,1-3.517,11.833q-8.434,8.526-16.977,16.946a13.3,13.3,0,0,1-21.777-4.8,12.84,12.84,0,0,1-.861-5.164c.033-.823-.207-1.08-1.043-1.1-11.751-.229-20.567-5.491-26.31-15.709a27.656,27.656,0,0,1-3.056-18.861c1.839-10.306,7.681-17.613,17.056-22.1A27.9,27.9,0,0,1,624.144,79.484Zm26.807,27.729-.127-.189-.017-.17a26.7,26.7,0,0,0-5.726-14.329c-.927-1.174-.937-1.166-2.117-.223a1.532,1.532,0,0,1-2.017-.02,1.476,1.476,0,0,1-.026-1.944,4.334,4.334,0,0,1,.579-.621c.424-.364.316-.653-.063-.967A26.364,26.364,0,0,0,627.389,82.6c-1.673-.2-1.676-.169-1.944,1.5a1.374,1.374,0,0,1-1.4,1.22A1.355,1.355,0,0,1,622.7,84.04c-.031-.28-.021-.567-.026-.85-.009-.574-.269-.8-.861-.746a26.816,26.816,0,0,0-14.339,5.693c-1.23.966-1.22.979-.271,2.171a1.478,1.478,0,0,1-.037,2.007,1.528,1.528,0,0,1-2.013-.04,2.768,2.768,0,0,1-.363-.357c-.449-.556-.8-.534-1.276.04a26.455,26.455,0,0,0-6.043,13.926c-.2,1.706-.191,1.707,1.453,1.907a1.379,1.379,0,0,1-.031,2.753c-.281.029-.567.019-.851.02-.54,0-.766.266-.716.807a26.9,26.9,0,0,0,6.254,15.08c.377.453.66.487,1.1.066,1.04-.986,1.869-1.121,2.5-.49.657.66.523,1.491-.466,2.5-.411.417-.447.7.034,1.1a26.381,26.381,0,0,0,14.149,6.12c1.576.167,1.58.159,1.794-1.476a1.354,1.354,0,0,1,1.121-1.229,1.25,1.25,0,0,1,1.48.739,6.042,6.042,0,0,1,.187,1.327,2.549,2.549,0,0,0,.3.61c.147-.143.359-.257.431-.43a14.756,14.756,0,0,1,3.281-4.714c4.651-4.617,9.266-9.271,13.913-13.893,2.1-2.093,4.046-4.4,6.984-5.431.12-.043.284-.3.25-.364a.669.669,0,0,0-.41-.316c-.3-.049-.624.007-.933-.021a1.377,1.377,0,0,1-.019-2.753,3.56,3.56,0,0,0,.844-.041A4.259,4.259,0,0,0,650.951,107.213Zm2.164,33.341-14.679-14.746a2.572,2.572,0,0,0-.364.267c-2.449,2.444-4.976,4.816-7.313,7.363a9.606,9.606,0,0,0-2.408,9.069,10.2,10.2,0,0,0,7.417,7.9,9.9,9.9,0,0,0,10.179-2.653c1.779-1.707,3.494-3.479,5.234-5.226C651.856,141.851,652.521,141.161,653.115,140.554Zm12.7-16.8c-.017-.356-.014-.641-.05-.921-.047-.366-.116-.729-.191-1.09a10.222,10.222,0,0,0-7.306-8.1,9.831,9.831,0,0,0-10.277,2.539c-2.311,2.219-4.536,4.529-6.823,6.773-.476.469-.476.791-.007,1.257q6.84,6.8,13.651,13.634c.369.369.653.437,1.053.031,2.389-2.419,4.829-4.79,7.184-7.24A10.208,10.208,0,0,0,665.812,123.755Z" transform="translate(-594.352 -79.484)" fill="#fff"/>
    <path id="Path_4" data-name="Path 4" d="M627.736,106.532c-2.043,0-4.086.014-6.13-.009a1.315,1.315,0,0,0-1.3.726,4.381,4.381,0,0,1-8.181-2.759,4.031,4.031,0,0,1,2.177-3.169,1.346,1.346,0,0,0,.771-1.357q-.017-4.725.006-9.451c.006-1.033.434-1.549,1.251-1.613.929-.071,1.513.463,1.529,1.5.03,1.987.013,3.974.014,5.961,0,1.22.011,2.441,0,3.661a1.336,1.336,0,0,0,.673,1.243,7.406,7.406,0,0,1,1.774,1.777,1.415,1.415,0,0,0,1.321.693q6.174-.021,12.346,0c1.04,0,1.61.4,1.721,1.154.141.951-.474,1.619-1.583,1.63-2.129.023-4.257.007-6.386.007Zm-9.771-1.39a1.509,1.509,0,0,0-1.509-1.52,1.471,1.471,0,0,0-1.473,1.456,1.491,1.491,0,0,0,1.454,1.564A1.511,1.511,0,0,0,617.965,105.142Z" transform="translate(-586.748 -75.451)" fill="#fff"/>
  </g>
</svg>
