<svg xmlns="http://www.w3.org/2000/svg" xmlns:xlink="http://www.w3.org/1999/xlink" width="65" height="65" viewBox="0 0 87.451 98.877">
  <defs>
    <linearGradient id="linear-gradient" x1="0.5" x2="0.5" y2="1" gradientUnits="objectBoundingBox">
      <stop offset="0" stop-color="#00b48d"/>
      <stop offset="1" stop-color="#4b8cdd"/>
    </linearGradient>
    <filter id="OTC_Drugs" x="0" y="0" width="87.451" height="98.877" filterUnits="userSpaceOnUse">
      <feOffset dy="3" input="SourceAlpha"/>
      <feGaussianBlur stdDeviation="3" result="blur"/>
      <feFlood flood-opacity="0.082"/>
      <feComposite operator="in" in2="blur"/>
      <feComposite in="SourceGraphic"/>
    </filter>
  </defs>
  <g transform="matrix(1, 0, 0, 1, 0, 0)" filter="url(#OTC_Drugs)">
    <path id="OTC_Drugs-2" data-name="OTC Drugs" d="M46.015,95.6l-.143,0h-.051A23.357,23.357,0,0,1,22.676,74.325l-.027.012-.019.008-.031.014-.017.008A15.918,15.918,0,0,1,9.4,74.435l-.028-.012c-.127-.057-.254-.117-.373-.175l-.085-.04L8.888,74.2c-.073-.036-.146-.073-.218-.111l-.082-.042-.069-.035-.1-.054c-.052-.027-.1-.056-.155-.085l-.06-.034c-.083-.045-.164-.089-.246-.136A15.8,15.8,0,0,1,1.615,66.91c-.018-.036-.034-.073-.05-.11s-.033-.074-.05-.11c-.2-.418-.364-.815-.511-1.211a15.989,15.989,0,0,1-.956-4.36C.023,60.793.009,60.527,0,60.28c-.012-.512,0-1.029.039-1.535.019-.262.045-.52.077-.769a15.493,15.493,0,0,1,.266-1.531A15.791,15.791,0,0,1,2.129,52l8.488-14.669L19.1,22.666a15.775,15.775,0,0,1,7.548-6.674,16.185,16.185,0,0,1,6.263-1.264c.312,0,.628.009.939.027l1.623.112,1.352.238-.006.1c.007,0,1.327.414,1.345.418-.088.009-.466.05-.472.063s.013,0,.038,0c.074,0,.256-.009.541-.028l.081,0L42.947,18.3a15.946,15.946,0,0,1,5.861,12.324,15.842,15.842,0,0,1-2.134,7.928L40.32,49.536l.059-.014.015,0c.151-.037.314-.075.483-.113l.02,0c.065-.015.13-.029.2-.042.16-.035.32-.067.476-.1l.233-.044c.149-.027.3-.053.46-.078.066-.011.131-.021.2-.031l.068-.01.036-.005c.132-.02.265-.04.4-.057l.2-.025L43.27,49c.13-.015.262-.031.391-.043s.262-.024.39-.035l.078-.007c.08-.007.159-.014.24-.019.162-.011.333-.021.555-.031l.048,0,.11-.005c.281-.011.515-.017.739-.019h.2A23.467,23.467,0,0,1,66.9,61.619c1.431,2.218,1.477,2.795,1.525,3.406a3.647,3.647,0,0,0,.157.887,23.3,23.3,0,0,1,.867,6.307c0,.278-.006.572-.02.928l0,.07L68.1,80.061A23.474,23.474,0,0,1,46.015,95.6Zm1.974-42.377V91.211A19.241,19.241,0,0,0,64.795,75.883c.022-.115.042-.232.06-.346l.02-.118c.008-.047.017-.095.025-.142.017-.094.034-.19.048-.285.025-.177.046-.357.066-.532l.009-.075c0-.037.009-.074.014-.111.008-.064.016-.128.022-.192.021-.211.038-.437.054-.734,0-.027,0-.053.006-.08s.006-.076.007-.114c.016-.31.024-.625.024-.935,0-.276-.007-.561-.022-.872l0-.067c-.013-.269-.032-.538-.059-.822,0-.034-.006-.069-.009-.1-.024-.241-.055-.5-.095-.791,0-.022-.006-.043-.009-.065l-.008-.058c-.036-.248-.078-.5-.129-.767l-.024-.127c-.048-.244-.1-.491-.164-.753l-.015-.059-.015-.062c-.06-.247-.127-.5-.2-.749l-.015-.051-.015-.051c-.081-.27-.159-.516-.239-.753l-.011-.031c0-.012-.009-.024-.013-.036-.089-.259-.184-.515-.281-.76l0-.014c-.09-.227-.193-.472-.316-.75l-.017-.038-.017-.038c-.1-.215-.2-.442-.332-.7l-.026-.052-.026-.052c-.12-.236-.236-.451-.353-.659-.022-.04-.043-.079-.066-.118-.114-.2-.237-.408-.376-.633l-.037-.059-.037-.059c-.122-.195-.254-.4-.4-.614l-.032-.045-.045-.065c-.162-.231-.3-.422-.435-.6l-.072-.092c-.17-.223-.325-.418-.473-.6-.018-.021-.036-.041-.053-.063-.167-.2-.337-.395-.5-.58l-.015-.017-.016-.017c-.157-.173-.328-.352-.537-.564l-.034-.035-.034-.035c-.165-.165-.347-.34-.541-.519l-.094-.087c-.183-.167-.368-.33-.55-.484l-.11-.092c-.178-.149-.364-.3-.566-.454l-.042-.032-.073-.056c-.2-.15-.4-.3-.589-.431l-.113-.077c-.209-.145-.417-.284-.617-.411l-.033-.021-.067-.042c-.234-.147-.449-.276-.658-.4l-.067-.037c-.239-.137-.463-.258-.684-.371l-.022-.012-.017-.009c-.212-.109-.447-.222-.715-.346l-.085-.04c-.226-.1-.463-.2-.706-.3l-.056-.023-.056-.023c-.227-.091-.465-.18-.707-.265l-.092-.032-.034-.012c-.224-.078-.465-.156-.718-.233l-.128-.038c-.266-.078-.508-.145-.739-.2l-.118-.028c-.294-.072-.538-.127-.767-.172l-.047-.009-.047-.009c-.283-.056-.547-.1-.808-.141l-.048-.007c-.322-.047-.591-.08-.846-.106Zm-4.3.042a19.128,19.128,0,0,0-5.539,1.543l-.007,0c-.225.1-.462.216-.77.371l-.147.075-.048.025c-.289.15-.527.279-.747.408l-.015.009-.015.009c-.064.036-.127.075-.189.113l-.072.044-.1.058-.14.085c-.064.039-.126.08-.189.12l-.072.047c-.078.049-.154.1-.228.147l-.169.116-.091.063-.09.062-.129.089c-.06.043-.119.086-.178.13l-.076.056L34.6,56.9l-.134.1c-.051.038-.1.078-.15.117l-.1.078-.1.08-.1.08c-.083.067-.163.135-.244.2s-.134.109-.2.165l-.144.127-.006.006-.093.082-.088.077-.1.088-.144.134-.008.007-.087.081-.075.07-.1.1c-.08.077-.159.156-.235.233l-.053.053c-.042.041-.08.079-.118.118s-.1.1-.152.158l-.077.081-.053.056c-.039.041-.076.08-.111.119-.08.087-.153.167-.221.247l-.039.043c-.04.045-.08.09-.12.135-.061.07-.12.141-.178.211l-.037.045-.076.09-.076.09c-.048.059-.094.118-.141.178l-.07.089-.046.057c-.033.042-.065.082-.1.123-.075.1-.148.2-.2.274l-.041.055-.1.128c-.048.068-.095.136-.142.2l-.053.076c-.044.062-.087.123-.13.186-.054.08-.107.161-.159.242l-.028.043-.125.191c-.06.1-.12.194-.178.291l-.046.074-.073.12c-.058.1-.113.2-.169.3l-.038.066-.075.131c-.044.08-.086.16-.129.241l-.03.057-.039.073c-.023.043-.047.087-.069.13-.034.066-.066.133-.1.2l-.049.1-.021.042c-.029.057-.056.112-.083.169-.037.077-.073.156-.108.235l-.027.061-.026.055c-.026.056-.052.111-.076.166s-.056.129-.083.194l-.041.1-.038.088c-.021.049-.042.1-.061.144l-.056.143-.056.143c-.016.043-.033.086-.05.129s-.031.078-.045.116c-.023.063-.045.126-.067.188l-.033.1-.034.095c-.019.053-.038.106-.056.16-.026.075-.05.152-.073.226l-.015.05-.009.027c-.027.08-.053.16-.078.241s-.05.173-.075.259l-.03.1c-.019.063-.037.126-.054.189-.013.048-.025.1-.037.143l-.024.1-.027.106c-.018.071-.037.141-.054.213-.008.035-.016.07-.023.1s-.014.063-.021.093l-.016.069c-.023.1-.046.2-.066.294-.005.027-.01.055-.016.083l-.013.07c-.033.162-.058.293-.079.413,0,.021-.007.041-.01.063-.063.361-.115.725-.156,1.081-.022.186-.041.375-.058.577-.046.525-.069,1.066-.069,1.606a19.13,19.13,0,0,0,16.8,18.952ZM13.266,41.338h0L5.854,54.148a11.6,11.6,0,0,0,4.253,15.836c.113.064.235.133.358.2l.105.054c.084.043.174.089.264.132l.079.038.033.016c.087.041.177.083.266.121l.1.044c.081.035.188.08.3.122l.07.028c.112.043.232.09.356.132l.011,0a11.7,11.7,0,0,0,7.708.009l.063-.022c.1-.036.2-.074.3-.111l.045-.018.08-.032c.1-.039.179-.072.253-.1l.168-.074.215-.1.075-.036.126-.061.052-.026.13-.066c.076-.04.152-.08.228-.122l.076-.042.079-.043c.1-.056.177-.1.252-.148l.042-.025.084-.05c.09-.055.18-.114.267-.171l.021-.014.024-.015.061-.04c.123-.084.247-.17.367-.256,0-.023.006-.046.009-.069s.007-.049.01-.073.008-.057.012-.086l.017-.125c.01-.074.02-.149.031-.223,0-.022.006-.044.01-.065.007-.049.015-.1.023-.146l.014-.087c.02-.122.04-.248.062-.372,0-.012,0-.022.006-.033.012-.069.026-.138.04-.207l0-.019c.024-.13.053-.284.085-.437,0-.022.01-.044.015-.066s.011-.049.017-.074c.065-.3.138-.6.216-.9l.016-.064.021-.081c.032-.118.065-.235.1-.352l.028-.1c.018-.061.036-.122.053-.183.041-.138.085-.279.135-.432.024-.078.043-.139.062-.193l.018-.056.018-.056c.024-.073.05-.145.075-.217l.033-.094c.022-.06.043-.121.064-.182s.035-.1.051-.143c.03-.08.06-.159.09-.237l.02-.051c.021-.055.042-.11.064-.165l.031-.079.038-.1c.036-.089.072-.177.109-.265.021-.049.041-.1.063-.149.029-.07.058-.139.088-.207l.109-.247.049-.107,0-.01.008-.018L24.7,62.5c.03-.065.059-.129.09-.193.055-.119.113-.239.176-.365l.017-.035c.034-.069.067-.137.1-.206.059-.118.12-.235.181-.352l.074-.139L25.4,61.1c.009-.018.019-.036.029-.053l.006-.011.01-.02.021-.04.088-.158.032-.057c.042-.076.086-.151.129-.227.026-.044.051-.088.076-.132.043-.073.086-.146.13-.218l.12-.2L26.1,59.9l.036-.058.086-.136.053-.085q.053-.082.108-.165l.036-.055.076-.115.149-.224.027-.039.066-.095c.028-.041.057-.082.086-.123l.047-.067.1-.135.064-.09.016-.021.061-.083.108-.143.048-.064.014-.018c.052-.07.1-.14.157-.209l.028-.036.028-.036.07-.088.1-.128.074-.093.017-.021.077-.095.064-.079.12-.143.051-.061.054-.064c.054-.064.108-.128.163-.192l.038-.044c.035-.041.071-.081.108-.121l.053-.059c.081-.092.162-.184.245-.275l.019-.021c.04-.043.081-.087.122-.129l.063-.066.087-.093c.049-.053.1-.1.148-.156l.04-.04.1-.1.1-.1q.135-.136.274-.273l.214-.2.058-.056c.038-.037.077-.074.116-.11l.074-.067.035-.031.159-.144.051-.046.064-.058.1-.086.075-.065.065-.056.207-.176.05-.043.094-.08.084-.068.091-.073c.07-.059.136-.112.2-.162l.012-.01.117-.094.134-.1.076-.058.059-.045.135-.1L32,53.474l0,0,.052-.039c.056-.042.114-.084.172-.126l.073-.053.007,0,.072-.052.109-.077c.031-.023.063-.046.1-.068l.148-.1.1-.07.1-.066.005,0,.111-.076-19.782-11.4ZM32.934,19.017a11.691,11.691,0,0,0-10.1,5.794l-7.412,12.81L35.538,49.214,42.95,36.4A11.587,11.587,0,0,0,32.934,19.017Z" transform="translate(9 -8.73)" fill="url(#linear-gradient)"/>
  </g>
</svg>
