<svg xmlns="http://www.w3.org/2000/svg" xmlns:xlink="http://www.w3.org/1999/xlink" width="65" height="65" viewBox="0 0 80.525 80.073">
  <defs>
    <linearGradient id="linear-gradient" x1="0.5" x2="0.5" y2="1" gradientUnits="objectBoundingBox">
      <stop offset="0" stop-color="#4398CF"/>
      <stop offset="1" stop-color="#4b8cdd"/>
    </linearGradient>
  </defs>
  <g id="Prescription" transform="translate(0 -0.105)">
    <path id="Path_7201" data-name="Path 7201" d="M73.252.388A1.661,1.661,0,0,0,72.33.105H19.768c-4.519,0-8.2,3.932-8.2,8.751l-.309,48.89h-9.5A1.84,1.84,0,0,0,0,59.654v8.808c.006,6.468,4.859,11.709,10.847,11.717a1.656,1.656,0,0,0,.363-.04H55.064c.261.02.525.034.79.034,6.081-.012,11.006-5.338,11.008-11.907V39.685h11.9a1.84,1.84,0,0,0,1.765-1.906V9.478A9.045,9.045,0,0,0,73.252.388ZM3.53,68.462v-6.9H44.847v6.7a12.407,12.407,0,0,0,2.914,8.059H10.606a1.627,1.627,0,0,0-.248.021A7.685,7.685,0,0,1,3.53,68.462Zm59.8-58.984V68.265a8.4,8.4,0,0,1-2.181,5.682,7.149,7.149,0,0,1-5.057,2.407,1.631,1.631,0,0,0-.289-.028h-.621a7.938,7.938,0,0,1-6.808-8.059V59.654a1.84,1.84,0,0,0-1.765-1.906H14.794L15.1,8.87a4.819,4.819,0,0,1,4.665-4.952H65.085a9.581,9.581,0,0,0-1.753,5.559ZM76.995,35.872H66.862V9.478a5.076,5.076,0,1,1,10.133,0Zm0,0" transform="translate(0 0)" fill="url(#linear-gradient)"/>
    <path id="Path_7202" data-name="Path 7202" d="M120.293,92.254H138.35a1.906,1.906,0,0,0,0-3.813H120.293a1.906,1.906,0,1,0,0,3.813Zm0,0" transform="translate(-98.053 -71.494)" fill="url(#linear-gradient)"/>
    <path id="Path_7203" data-name="Path 7203" d="M153.976,159.941H120.293a1.907,1.907,0,1,0,0,3.813h33.682a1.907,1.907,0,0,0,0-3.813Zm0,0" transform="translate(-98.759 -129.363)" fill="url(#linear-gradient)"/>
    <path id="Path_7204" data-name="Path 7204" d="M153.976,231.438H120.293a1.906,1.906,0,1,0,0,3.813h33.682a1.906,1.906,0,1,0,0-3.813Zm0,0" transform="translate(-98.759 -187.229)" fill="url(#linear-gradient)"/>
  </g>
</svg>
