
<svg xmlns="http://www.w3.org/2000/svg" xmlns:xlink="http://www.w3.org/1999/xlink" width="20" height="20" viewBox="0 0 133 150">
  <defs>
    <clipPath id="clip-path">
      <rect id="Rectangle_45" data-name="Rectangle 45" width="133" height="150" transform="translate(0)" fill="#9ff4db"/>
    </clipPath>
  </defs>
  <g id="shop_icon_card_background" data-name="shop icon card background" transform="translate(0)" opacity="0.1" clip-path="url(#clip-path)">
    <g id="shop" transform="translate(1.244 0.964)">
      <g id="Group_1248" data-name="Group 1248" transform="translate(0 0)">
        <path id="Path_7175" data-name="Path 7175" d="M285.484,263.75H260.566A12.378,12.378,0,0,0,248.2,276.116v19.11a12.378,12.378,0,0,0,12.366,12.366h24.918a12.378,12.378,0,0,0,12.366-12.366v-19.11A12.378,12.378,0,0,0,285.484,263.75Zm3.372,31.476a3.382,3.382,0,0,1-3.372,3.372H260.566a3.382,3.382,0,0,1-3.372-3.372v-19.11a3.382,3.382,0,0,1,3.372-3.372h24.918a3.382,3.382,0,0,1,3.372,3.372Z" transform="translate(-155.196 -176.554)" fill="#9ff4db"/>
        <path id="Path_7176" data-name="Path 7176" d="M183.385,83.51a4.174,4.174,0,0,0-.6-2.211L155.506,33.336a4.521,4.521,0,0,0-3.9-2.286H31.738a4.444,4.444,0,0,0-3.9,2.286L.6,81.3A4.546,4.546,0,0,0,0,83.51a26.3,26.3,0,0,0,15.738,24.057v79.1a4.51,4.51,0,0,0,4.5,4.5H163.113a4.51,4.51,0,0,0,4.5-4.5v-78.54a1.979,1.979,0,0,0-.037-.487A26.377,26.377,0,0,0,183.385,83.51ZM34.361,40.081H148.986l21.321,37.509H13.078Zm96.152,46.465a17.282,17.282,0,0,1-34.024,0Zm-43.579,0a17.3,17.3,0,0,1-34.061,0Zm-77.641,0H43.354a17.3,17.3,0,0,1-34.061,0Zm66.249,95.627H49.687V133.647a6.4,6.4,0,0,1,6.408-6.408H69.172a6.4,6.4,0,0,1,6.408,6.408v48.525Zm83.074,0H84.535V133.647a15.424,15.424,0,0,0-15.4-15.4H56.057a15.424,15.424,0,0,0-15.4,15.4V182.21H24.731V109.777c.525.037,1.049.037,1.574.037A26.271,26.271,0,0,0,48.113,98.2a26.28,26.28,0,0,0,43.617,0,26.209,26.209,0,0,0,43.542,0,26.271,26.271,0,0,0,21.808,11.616c.525,0,1.012-.037,1.536-.037v72.395Zm-1.536-81.35a17.273,17.273,0,0,1-17.012-14.239H174.13A17.378,17.378,0,0,1,157.08,100.822Z" transform="translate(0 -31.05)" fill="#9ff4db"/>
      </g>
    </g>
  </g>
</svg>
