<svg xmlns="http://www.w3.org/2000/svg" width="30" height="30" viewBox="0 0 57.09 56.334">
  <g id="whatsapp_help_icon" data-name="whatsapp help icon" transform="translate(0)">
    <path id="Path_7089" data-name="Path 7089" d="M1.22,56.334a1.23,1.23,0,0,1-.867-.356,1.184,1.184,0,0,1-.309-1.159L3.771,41.446A27.569,27.569,0,0,1,.229,27.924C.235,12.526,12.989,0,28.66,0A28.516,28.516,0,0,1,48.77,8.19a27.515,27.515,0,0,1,8.32,19.756c-.007,15.4-12.761,27.925-28.431,27.925h-.012A28.9,28.9,0,0,1,15.492,52.7L1.53,56.3A1.248,1.248,0,0,1,1.22,56.334Zm0,0" transform="translate(0)" fill="#e5e5e5"/>
    <path id="Path_7090" data-name="Path 7090" d="M10.895,64.832l3.86-13.849A26.32,26.32,0,0,1,11.123,37.62c.006-14.736,12.212-26.726,27.211-26.726a27.284,27.284,0,0,1,19.248,7.838,26.332,26.332,0,0,1,7.963,18.909c-.007,14.736-12.214,26.727-27.21,26.727h-.012a27.572,27.572,0,0,1-13-3.254Zm15.093-8.555.826.481a22.893,22.893,0,0,0,11.511,3.1h.009A22.451,22.451,0,0,0,60.95,37.64a21.884,21.884,0,0,0-6.618-15.716,22.7,22.7,0,0,0-38.615,15.7,21.869,21.869,0,0,0,3.458,11.822l.538.841-2.285,8.2Zm0,0" transform="translate(-9.674 -9.696)" fill="#fff"/>
    <path id="Path_7091" data-name="Path 7091" d="M19.344,71.453,23.07,58.082a25.407,25.407,0,0,1-3.507-12.9,26.074,26.074,0,0,1,26.268-25.8A26.337,26.337,0,0,1,64.414,26.95,25.416,25.416,0,0,1,72.1,45.2a26.076,26.076,0,0,1-26.267,25.8h-.012a26.635,26.635,0,0,1-12.552-3.14Zm0,0" transform="translate(-17.177 -17.25)" fill="#64b161"/>
    <g id="Group_1230" data-name="Group 1230" transform="translate(1.22 1.199)">
      <path id="Path_7092" data-name="Path 7092" d="M10.895,64.832l3.86-13.849A26.32,26.32,0,0,1,11.123,37.62c.006-14.736,12.212-26.726,27.211-26.726a27.284,27.284,0,0,1,19.248,7.838,26.332,26.332,0,0,1,7.963,18.909c-.007,14.736-12.214,26.727-27.21,26.727h-.012a27.572,27.572,0,0,1-13-3.254Zm15.093-8.555.826.481a22.893,22.893,0,0,0,11.511,3.1h.009A22.451,22.451,0,0,0,60.95,37.64a21.884,21.884,0,0,0-6.618-15.716,22.7,22.7,0,0,0-38.615,15.7,21.869,21.869,0,0,0,3.458,11.822l.538.841-2.285,8.2Zm0,0" transform="translate(-10.895 -10.895)" fill="#fff"/>
      <path id="Path_7093" data-name="Path 7093" d="M139.471,142.783c-.509-1.112-1.046-1.135-1.53-1.154-.4-.017-.85-.016-1.3-.016a2.519,2.519,0,0,0-1.813.836,7.434,7.434,0,0,0-2.38,5.571c0,3.287,2.437,6.463,2.777,6.909s4.7,7.406,11.614,10.083c5.743,2.225,6.912,1.783,8.159,1.671s4.022-1.616,4.589-3.176a5.487,5.487,0,0,0,.4-3.176c-.17-.278-.623-.445-1.3-.779s-4.022-1.95-4.646-2.173-1.077-.334-1.53.335-1.756,2.172-2.152,2.617-.794.5-1.473.168a18.664,18.664,0,0,1-5.467-3.315,20.185,20.185,0,0,1-3.783-4.626c-.4-.668-.007-1,.3-1.363a20.16,20.16,0,0,0,1.7-2.284,1.212,1.212,0,0,0-.056-1.17C141.4,147.408,140.075,144.1,139.471,142.783Zm0,0" transform="translate(-118.833 -127.23)" fill="#fff" fill-rule="evenodd"/>
    </g>
  </g>
</svg>
